<?xml version="1.0" encoding="UTF-8" standalone="no"?>
<!-- Created with Inkscape (http://www.inkscape.org/) -->

<svg
   width="43.297886mm"
   height="38.355362mm"
   viewBox="0 0 43.297886 38.355362"
   version="1.1"
   id="svg52579"
   inkscape:version="1.1.2 (0a00cf5339, 2022-02-04)"
   sodipodi:docname="logo-orange.svg"
   xmlns:inkscape="http://www.inkscape.org/namespaces/inkscape"
   xmlns:sodipodi="http://sodipodi.sourceforge.net/DTD/sodipodi-0.dtd"
   xmlns="http://www.w3.org/2000/svg"
   xmlns:svg="http://www.w3.org/2000/svg"
   xmlns:serif="http://www.serif.com/">
  <sodipodi:namedview
     id="namedview52581"
     pagecolor="#ffffff"
     bordercolor="#000000"
     borderopacity="0.25"
     inkscape:pageshadow="2"
     inkscape:pageopacity="0.0"
     inkscape:pagecheckerboard="0"
     inkscape:document-units="mm"
     showgrid="false"
     fit-margin-top="0"
     fit-margin-left="0"
     fit-margin-right="0"
     fit-margin-bottom="0"
     inkscape:zoom="1.2810466"
     inkscape:cx="-177.19886"
     inkscape:cy="193.98201"
     inkscape:window-width="2230"
     inkscape:window-height="970"
     inkscape:window-x="5177"
     inkscape:window-y="231"
     inkscape:window-maximized="0"
     inkscape:current-layer="layer1" />
  <defs
     id="defs52576" />
  <g
     inkscape:label="Ebene 1"
     inkscape:groupmode="layer"
     id="layer1"
     transform="translate(-39.899043,-39.065709)">
    <path
       id="rect9037"
       style="fill:#1c273a;fill-opacity:1;stroke:#000000;stroke-width:0.07;stroke-miterlimit:4;stroke-dasharray:none;stroke-opacity:1"
       d="m 67.90414,55.50639 c -1.40102,0 -2.58591,1.03674 -2.77347,2.42517 H 42.61385 v 0.74983 h 22.51682 c 0.18756,1.38843 1.37245,2.42451 2.77347,2.42517 1.54628,-8e-5 2.79974,-1.25354 2.79985,-2.79982 1.8e-4,-1.54647 -1.25339,-2.80027 -2.79985,-2.80035 z m 0,1.03507 c 0.9721,-5e-5 1.76016,0.78799 1.76011,1.76009 5e-5,0.97211 -0.78801,1.76017 -1.76011,1.76012 -0.97211,5e-5 -1.76014,-0.78801 -1.76009,-1.76012 -5e-5,-0.97208 0.78801,-1.76014 1.76009,-1.76009 z"
       sodipodi:nodetypes="ccccccscsssss" />
    <g
       id="HATCH74"
       serif:id="HATCH"
       transform="matrix(6.6145833e-4,0,0,6.6145833e-4,-1382.5814,206.25329)">
      <rect
         x="2155670"
         y="-218946"
         width="9470"
         height="1133.86"
         style="fill:#1c273a"
         id="rect181" />
    </g>
    <g
       id="_2DPOLYLINE59"
       serif:id="2DPOLYLINE"
       transform="matrix(6.6145833e-4,0,0,6.6145833e-4,-1382.5814,206.25329)">
      <rect
         x="2155670"
         y="-218946"
         width="9470"
         height="1133.86"
         style="fill:none;stroke:#000000;stroke-width:102.05px"
         id="rect182" />
    </g>
    <g
       id="HATCH75"
       serif:id="HATCH"
       transform="matrix(6.6145833e-4,0,0,6.6145833e-4,-1382.5814,206.25329)">
      <rect
         x="2160190"
         y="-216537"
         width="5408.3301"
         height="1133.86"
         style="fill:#1c273a"
         id="rect183" />
    </g>
    <g
       id="_2DPOLYLINE60"
       serif:id="2DPOLYLINE"
       transform="matrix(6.6145833e-4,0,0,6.6145833e-4,-1382.5814,206.25329)">
      <rect
         x="2160190"
         y="-216537"
         width="5408.3301"
         height="1133.86"
         style="fill:none;stroke:#000000;stroke-width:102.05px"
         id="rect184" />
    </g>
    <g
       id="HATCH76"
       serif:id="HATCH"
       transform="matrix(6.6145833e-4,0,0,6.6145833e-4,-1382.5814,205.62327)">
      <path
         d="m 2185850,-214584 c 640,-637 1640,-720 2380,-197 730,522 980,1498 580,2307 -390,810 -1310,1215 -2180,959 -860,-256 -1410,-1098 -1300,-1992 l -6720,-6713 h -23260 v -1134 h 28000 l 4820,4817 h 7390 l 1430,1422 c 630,-637 1640,-720 2370,-197 730,523 980,1499 580,2308 -390,809 -1310,1214 -2180,958 -860,-256 -1410,-1098 -1300,-1991 l -1370,-1366 h -7390 l -4820,-4817 h -2660 z m 11800,772 c 0,355 280,642 640,642 350,0 640,-287 640,-642 0,-170 -70,-334 -190,-454 -120,-121 -280,-188 -450,-188 -360,0 -640,287 -640,642 z m -11140,530 c 0,355 290,643 650,643 350,0 640,-288 640,-643 0,-170 -70,-333 -190,-454 -120,-120 -280,-188 -450,-188 -360,0 -650,288 -650,642 z"
         style="fill:#1c273a"
         id="path184" />
    </g>
    <g
       id="LWPOLYLINE37"
       serif:id="LWPOLYLINE"
       transform="matrix(6.6145833e-4,0,0,6.6145833e-4,-1382.5814,205.62327)">
      <path
         d="m 2185850,-214584 c 640,-637 1640,-720 2380,-197 730,522 980,1498 580,2307 -390,810 -1310,1215 -2180,959 -860,-256 -1410,-1098 -1300,-1992 l -6720,-6713 h -23260 v -1134 h 28000 l 4820,4817 h 7390 l 1430,1422 c 630,-637 1640,-720 2370,-197 730,523 980,1499 580,2308 -390,809 -1310,1214 -2180,958 -860,-256 -1410,-1098 -1300,-1991 l -1370,-1366 h -7390 l -4820,-4817 h -2660 z"
         style="fill:none;stroke:#000000;stroke-width:102.05px"
         id="path185" />
    </g>
    <g
       id="LWPOLYLINE38"
       serif:id="LWPOLYLINE"
       transform="matrix(6.6145833e-4,0,0,6.6145833e-4,-1382.5814,205.62327)">
      <path
         d="m 2197650,-213812 c 0,355 280,642 640,642 350,0 640,-287 640,-642 0,-355 -290,-642 -640,-642 -360,0 -640,287 -640,642 z"
         style="fill:none;stroke:#000000;stroke-width:102.05px"
         id="path186" />
    </g>
    <g
       id="LWPOLYLINE39"
       serif:id="LWPOLYLINE"
       transform="matrix(6.6145833e-4,0,0,6.6145833e-4,-1382.5814,205.62327)">
      <path
         d="m 2186510,-213282 c 0,355 290,643 650,643 350,0 640,-288 640,-643 0,-354 -290,-642 -640,-642 -360,0 -650,288 -650,642 z"
         style="fill:none;stroke:#000000;stroke-width:102.05px"
         id="path187" />
    </g>
    <g
       id="HATCH77"
       serif:id="HATCH"
       transform="matrix(6.6145833e-4,0,0,6.6145833e-4,-1382.5814,206.25329)">
      <rect
         x="2159210"
         y="-230989"
         width="6048.6099"
         height="1133.86"
         style="fill:#1c273a"
         id="rect187" />
    </g>
    <g
       id="_2DPOLYLINE61"
       serif:id="2DPOLYLINE"
       transform="matrix(6.6145833e-4,0,0,6.6145833e-4,-1382.5814,206.25329)">
      <rect
         x="2159210"
         y="-230989"
         width="6048.6099"
         height="1133.86"
         style="fill:none;stroke:#000000;stroke-width:102.05px"
         id="rect188" />
    </g>
    <g
       id="HATCH78"
       serif:id="HATCH"
       transform="matrix(6.6145833e-4,0,0,6.6145833e-4,-1382.5814,206.25329)">
      <path
         d="m 2156800,-226171 h 25390 l 4810,-4818 h 7020 v 1134 h -6550 l -4810,4817 h -25860 z"
         style="fill:#1c273a"
         id="path188" />
    </g>
    <g
       id="_2DPOLYLINE62"
       serif:id="2DPOLYLINE"
       transform="matrix(6.6145833e-4,0,0,6.6145833e-4,-1382.5814,206.25329)">
      <path
         d="m 2156800,-226171 h 25390 l 4810,-4818 h 7020 v 1134 h -6550 l -4810,4817 h -25860 z"
         style="fill:none;stroke:#000000;stroke-width:102.05px"
         id="path189" />
    </g>
    <g
       id="HATCH79"
       serif:id="HATCH"
       transform="matrix(6.6145833e-4,0,0,6.6145833e-4,-1382.5814,206.25329)">
      <path
         d="m 2185510,-234259 h 10940 c 0,-900 650,-1668 1530,-1817 890,-148 1760,366 2050,1218 290,851 -70,1789 -860,2219 -790,429 -1780,224 -2330,-486 h -10860 l -5680,5679 h -25320 v -1134 h 24850 z m 12140,0 c 0,355 280,642 640,642 350,0 640,-287 640,-642 0,-170 -70,-333 -190,-454 -120,-120 -280,-188 -450,-188 -360,0 -640,288 -640,642 z"
         style="fill:#1c273a"
         id="path190" />
    </g>
    <g
       id="LWPOLYLINE40"
       serif:id="LWPOLYLINE"
       transform="matrix(6.6145833e-4,0,0,6.6145833e-4,-1382.5814,206.25329)">
      <path
         d="m 2185510,-234259 h 10940 c 0,-900 650,-1668 1530,-1817 890,-148 1760,366 2050,1218 290,851 -70,1789 -860,2219 -790,429 -1780,224 -2330,-486 h -10860 l -5680,5679 h -25320 v -1134 h 24850 z"
         style="fill:none;stroke:#000000;stroke-width:102.05px"
         id="path191" />
    </g>
    <g
       id="LWPOLYLINE41"
       serif:id="LWPOLYLINE"
       transform="matrix(6.6145833e-4,0,0,6.6145833e-4,-1382.5814,206.25329)">
      <path
         d="m 2197650,-234259 c 0,355 280,642 640,642 350,0 640,-287 640,-642 0,-354 -290,-642 -640,-642 -360,0 -640,288 -640,642 z"
         style="fill:none;stroke:#000000;stroke-width:102.05px"
         id="path192" />
    </g>
    <g
       id="_2DPOLYLINE63"
       serif:id="2DPOLYLINE"
       transform="matrix(6.6145833e-4,0,0,6.6145833e-4,-1382.5814,206.25329)">
      <path
         d="m 2177930,-232597 -210,367 -200,372 -200,377 -180,382 -180,385 -160,391 -160,394 -150,398 -130,401 -130,404 -120,408 -100,410 -100,413 -90,415 -70,417 -70,419 -50,420 -50,421 -40,423 -20,423 -10,424 -10,423 10,424 20,424 20,423 40,422 50,421 60,420 70,419 70,416 90,414 100,413 110,409 120,407 130,404 140,400 150,397 160,393 170,389 170,385 190,380 200,376 200,371 220,366 220,360 230,354 240,349 250,343 260,337 270,330 270,323 280,317 290,310 300,302 300,295 310,288 320,280 330,271 330,264 340,256 340,247 350,239 360,230 360,221 370,213 370,203 380,194 380,185 380,175 390,166 400,156 400,147 400,136 400,127 410,117 410,107 410,96 420,87 410,76 420,66 420,56 420,45 430,35 420,25 10,1 v 6698 l -320,-11 -590,-34 -580,-48 -590,-64 -580,-77 -580,-92 -580,-105 -580,-120 -570,-135 -570,-148 -560,-162 -560,-176 -560,-189 -550,-204 -550,-216 -540,-231 -540,-243 -530,-256 -520,-270 -520,-282 -500,-294 -510,-307 -490,-319 -490,-332 -470,-343 -470,-355 -460,-366 -460,-377 -440,-388 -430,-399 -420,-410 -410,-420 -410,-429 -390,-440 -380,-449 -370,-458 -350,-467 -350,-476 -330,-484 -330,-492 -310,-500 -290,-507 -290,-514 -270,-522 -260,-528 -250,-534 -230,-540 -220,-545 -210,-551 -190,-555 -180,-561 -170,-564 -150,-568 -140,-572 -120,-575 -110,-578 -90,-581 -80,-583 -70,-584 -50,-586 -40,-587 -20,-588 -10,-588 v -588 l 20,-588 40,-587 40,-586 70,-585 70,-583 100,-582 100,-578 120,-576 140,-573 140,-569 170,-565 170,-562 190,-557 210,-552 210,-547 230,-541 250,-535 250,-530 270,-523 280,-516 300,-509 310,-502 310,-494 340,-486 340,-478 350,-469 370,-461 380,-451 390,-442 390,-432 410,-422 420,-412 430,-402 440,-391 450,-380 460,-369 470,-358 470,-346 490,-334 490,-322 500,-310 510,-298 510,-285 520,-273 530,-260 530,-246 540,-234 550,-220 550,-206 560,-193 560,-180 560,-165 570,-152 570,-138 580,-123 570,-110 580,-95 590,-81 580,-67 590,-52 580,-38 470,-19 v 6701 l -120,4 -420,28 -420,37 -420,48 -420,59 -420,68 -420,79 -410,89 -410,100 -410,109 -410,119 -400,129 -410,140 -390,149 -400,158 -380,168 -390,178 -380,187 -380,197 -370,205 -360,215 -360,223 -360,233 -350,240 -340,250 -330,258 -330,265 -330,274 -310,282 -310,290 -310,297 -290,304 -290,311 -280,319 -270,325 -270,332 -250,338 -250,344 -240,351 -230,356 z"
         style="fill:none;stroke:#000000;stroke-width:102.05px"
         id="path196" />
    </g>
    <g
       id="HATCH81"
       serif:id="HATCH"
       transform="matrix(6.6145833e-4,0,0,6.6145833e-4,-1382.5814,206.25329)"
       style="fill:#00b4b3;fill-opacity:1">
      <path
         d="m 2167500,-223193 20,620 40,619 50,618 70,617 80,615 100,613 110,610 130,608 140,604 160,600 170,596 180,592 200,587 220,582 230,577 240,570 260,565 270,558 280,552 300,544 310,536 330,529 340,521 350,512 360,504 370,495 390,485 400,475 410,466 420,456 430,444 440,435 460,423 460,412 480,400 480,389 490,377 510,364 510,352 520,340 520,326 540,314 540,300 550,287 560,273 560,260 570,245 580,232 580,217 590,203 590,189 590,174 600,159 610,145 600,129 610,115 610,100 620,85 620,69 610,55 620,39 510,20 v 2103 l -560,-21 -670,-41 -670,-58 -670,-74 -660,-91 -670,-106 -660,-123 -660,-140 -650,-155 -650,-171 -640,-187 -650,-203 -630,-219 -630,-234 -630,-250 -610,-264 -610,-280 -610,-295 -590,-309 -590,-325 -580,-338 -580,-352 -560,-367 -550,-380 -550,-394 -530,-407 -530,-420 -510,-432 -510,-446 -490,-457 -480,-469 -470,-481 -460,-493 -440,-503 -430,-514 -420,-525 -410,-535 -390,-545 -380,-554 -370,-563 -350,-572 -340,-581 -330,-589 -310,-596 -290,-604 -280,-611 -260,-618 -250,-624 -240,-630 -220,-635 -200,-641 -190,-646 -170,-649 -150,-654 -140,-658 -130,-660 -100,-664 -90,-666 -80,-668 -50,-669 -50,-671 -20,-672 -10,-672 10,-672 20,-671 50,-671 50,-670 80,-668 90,-666 100,-663 130,-661 140,-657 150,-654 170,-650 190,-646 200,-640 220,-636 240,-630 250,-624 260,-617 280,-611 290,-604 310,-597 330,-589 340,-580 350,-573 370,-563 380,-554 390,-545 410,-535 420,-524 430,-514 440,-504 460,-492 470,-481 480,-470 490,-457 510,-445 510,-433 530,-420 530,-407 550,-394 550,-380 560,-366 580,-353 580,-338 590,-324 590,-310 610,-295 610,-279 610,-265 630,-250 630,-234 630,-218 650,-203 640,-188 650,-171 650,-155 660,-139 660,-123 670,-107 660,-91 670,-74 670,-57 670,-42 560,-20 v 2103 l -410,14 -620,37 -610,52 -620,67 -620,82 -610,98 -610,112 -610,127 -600,142 -600,157 -600,172 -590,186 -590,201 -580,215 -570,229 -570,243 -570,258 -560,271 -550,284 -540,298 -540,312 -530,324 -520,338 -510,349 -510,363 -490,375 -480,386 -480,399 -470,410 -450,421 -450,433 -430,443 -420,454 -420,464 -400,474 -390,483 -370,493 -370,503 -350,510 -340,520 -320,527 -320,536 -300,543 -280,550 -280,557 -260,564 -240,569 -230,576 -220,581 -210,587 -180,591 -180,595 -160,600 -140,603 -130,607 -120,610 -100,612 -80,615 -70,617 -50,618 -40,619 -30,620 -10,620 z"
         style="fill:#00b4b3;fill-opacity:1"
         id="path197" />
    </g>
    <g
       id="_2DPOLYLINE64"
       serif:id="2DPOLYLINE"
       transform="matrix(6.6145833e-4,0,0,6.6145833e-4,-1382.5814,206.25329)">
      <path
         d="m 2167500,-223193 20,620 40,619 50,618 70,617 80,615 100,613 110,610 130,608 140,604 160,600 170,596 180,592 200,587 220,582 230,577 240,570 260,565 270,558 280,552 300,544 310,536 330,529 340,521 350,512 360,504 370,495 390,485 400,475 410,466 420,456 430,444 440,435 460,423 460,412 480,400 480,389 490,377 510,364 510,352 520,340 520,326 540,314 540,300 550,287 560,273 560,260 570,245 580,232 580,217 590,203 590,189 590,174 600,159 610,145 600,129 610,115 610,100 620,85 620,69 610,55 620,39 510,20 v 2103 l -560,-21 -670,-41 -670,-58 -670,-74 -660,-91 -670,-106 -660,-123 -660,-140 -650,-155 -650,-171 -640,-187 -650,-203 -630,-219 -630,-234 -630,-250 -610,-264 -610,-280 -610,-295 -590,-309 -590,-325 -580,-338 -580,-352 -560,-367 -550,-380 -550,-394 -530,-407 -530,-420 -510,-432 -510,-446 -490,-457 -480,-469 -470,-481 -460,-493 -440,-503 -430,-514 -420,-525 -410,-535 -390,-545 -380,-554 -370,-563 -350,-572 -340,-581 -330,-589 -310,-596 -290,-604 -280,-611 -260,-618 -250,-624 -240,-630 -220,-635 -200,-641 -190,-646 -170,-649 -150,-654 -140,-658 -130,-660 -100,-664 -90,-666 -80,-668 -50,-669 -50,-671 -20,-672 -10,-672 10,-672 20,-671 50,-671 50,-670 80,-668 90,-666 100,-663 130,-661 140,-657 150,-654 170,-650 190,-646 200,-640 220,-636 240,-630 250,-624 260,-617 280,-611 290,-604 310,-597 330,-589 340,-580 350,-573 370,-563 380,-554 390,-545 410,-535 420,-524 430,-514 440,-504 460,-492 470,-481 480,-470 490,-457 510,-445 510,-433 530,-420 530,-407 550,-394 550,-380 560,-366 580,-353 580,-338 590,-324 590,-310 610,-295 610,-279 610,-265 630,-250 630,-234 630,-218 650,-203 640,-188 650,-171 650,-155 660,-139 660,-123 670,-107 660,-91 670,-74 670,-57 670,-42 560,-20 v 2103 l -410,14 -620,37 -610,52 -620,67 -620,82 -610,98 -610,112 -610,127 -600,142 -600,157 -600,172 -590,186 -590,201 -580,215 -570,229 -570,243 -570,258 -560,271 -550,284 -540,298 -540,312 -530,324 -520,338 -510,349 -510,363 -490,375 -480,386 -480,399 -470,410 -450,421 -450,433 -430,443 -420,454 -420,464 -400,474 -390,483 -370,493 -370,503 -350,510 -340,520 -320,527 -320,536 -300,543 -280,550 -280,557 -260,564 -240,569 -230,576 -220,581 -210,587 -180,591 -180,595 -160,600 -140,603 -130,607 -120,610 -100,612 -80,615 -70,617 -50,618 -40,619 -30,620 -10,620 z"
         style="fill:none;stroke:#000000;stroke-width:102.05px"
         id="path198" />
    </g>
    <g
       id="_2DPOLYLINE65"
       serif:id="2DPOLYLINE"
       transform="matrix(6.6145833e-4,0,0,6.6145833e-4,-1382.5814,206.25329)">
      <path
         d="m 2194120,-251113 -570,-20 v 10116 h 20 l 420,25 420,35 430,45 420,56 410,66 420,77 420,86 410,97 410,106 410,117 400,127 400,137 400,146 390,156 390,166 390,176 380,184 380,194 370,204 370,212 360,221 360,230 350,239 340,247 340,256 330,264 330,272 310,280 320,287 300,295 300,303 290,309 280,317 180,221 7750,-6499 -240,-285 -450,-504 -450,-492 -470,-481 -480,-470 -500,-457 -500,-445 -510,-433 -530,-420 -530,-407 -550,-394 -550,-380 -570,-366 -570,-353 -580,-338 -590,-324 -590,-310 -610,-295 -610,-279 -620,-265 -620,-250 -630,-234 -640,-218 -640,-203 -640,-188 -650,-171 -660,-155 -650,-139 -660,-123 -670,-107 -660,-91 -670,-74 -670,-57 z"
         style="fill:none;stroke:#000000;stroke-width:102.05px"
         id="path199" />
    </g>
    <g
       id="HATCH82"
       serif:id="HATCH"
       transform="matrix(6.6145833e-4,0,0,6.6145833e-4,-1382.5814,206.25329)"
       style="fill:#cc6d3d;fill-opacity:1">
      <path
         d="m 2203250,-198465 620,-264 610,-280 610,-295 590,-309 590,-325 580,-338 570,-352 570,-367 550,-380 550,-394 530,-407 530,-420 510,-432 500,-446 500,-457 480,-469 470,-481 450,-493 450,-503 240,-286 -7750,-6498 -110,139 -280,319 -290,311 -300,305 -300,297 -310,289 -310,282 -330,274 -330,266 -330,258 -350,249 -350,241 -350,232 -360,224 -370,214 -370,206 -370,196 -380,187 -390,178 -390,168 -390,159 -400,149 -400,139 -400,129 -410,119 -410,110 -410,99 -410,89 -420,79 -420,69 -420,58 -420,48 -420,38 -430,27 -120,5 v 10117 l 570,-21 670,-41 670,-58 670,-74 660,-91 670,-106 660,-123 650,-140 660,-155 650,-171 640,-187 640,-203 640,-219 630,-234 z"
         style="fill:#cc6d3d;fill-opacity:1"
         id="path200" />
    </g>
    <g
       id="_2DPOLYLINE66"
       serif:id="2DPOLYLINE"
       transform="matrix(6.6145833e-4,0,0,6.6145833e-4,-1382.5814,206.25329)">
      <path
         d="m 2203250,-198465 620,-264 610,-280 610,-295 590,-309 590,-325 580,-338 570,-352 570,-367 550,-380 550,-394 530,-407 530,-420 510,-432 500,-446 500,-457 480,-469 470,-481 450,-493 450,-503 240,-286 -7750,-6498 -110,139 -280,319 -290,311 -300,305 -300,297 -310,289 -310,282 -330,274 -330,266 -330,258 -350,249 -350,241 -350,232 -360,224 -370,214 -370,206 -370,196 -380,187 -390,178 -390,168 -390,159 -400,149 -400,139 -400,129 -410,119 -410,110 -410,99 -410,89 -420,79 -420,69 -420,58 -420,48 -420,38 -430,27 -120,5 v 10117 l 570,-21 670,-41 670,-58 670,-74 660,-91 670,-106 660,-123 650,-140 660,-155 650,-171 640,-187 640,-203 640,-219 630,-234 z"
         style="fill:none;stroke:#000000;stroke-width:102.05px"
         id="path201" />
    </g>
    <g
       id="LINE4"
       serif:id="LINE"
       transform="matrix(6.6145833e-4,0,0,6.6145833e-4,-1382.5814,206.25329)">
      <path
         d="m 2206010,-234865 7740,-6499"
         style="fill:none;stroke:#000000;stroke-width:102.05px"
         id="path224" />
    </g>
    <g
       id="HATCH94"
       serif:id="HATCH"
       transform="matrix(6.6145833e-4,0,0,6.6145833e-4,-1382.5814,206.25329)">
      <path
         d="m 2204380,-234351 -810,-825 -870,-764 -920,-698 -970,-627 -1010,-555 -1060,-478 -1080,-400 -1120,-319 -1130,-236 -1140,-152 -1160,-67 -1160,17 -1150,103 -1140,187 -1120,271 -1110,353 -1070,433 -1040,510 -990,586 -960,657 -900,726 -840,790 -790,850 -720,905 -650,956 -580,1001 -500,1041 -430,1075 -340,1104 -270,1126 -180,1143 -90,1153 -10,1156 70,1155 160,1145 240,1131 330,1110 410,1083 480,1050 560,1012 630,968 710,918 770,864 830,805 880,742 940,675 990,604 1030,529 1060,453 1100,373 1120,291 1140,208 1150,124 1150,39 1160,-46 1150,-131 1130,-215 1120,-298 1090,-380 1070,-459 1020,-536 980,-610 940,-680 880,-748 830,-810 760,-869 800,-1076 10160,8526 -760,980 -930,1075 -980,1029 -1030,980 -1080,927 -1120,874 -1160,818 -1200,760 -1230,700 -1270,639 -1300,576 -1330,511 -1340,446 -1370,379 -1390,311 -1400,243 -1410,174 -1420,104 -1420,35 -1420,-35 -1410,-104 -1410,-174 -1400,-243 -1390,-311 -1370,-379 -1350,-446 -1320,-511 -1300,-576 -1270,-639 -1240,-700 -1200,-760 -1160,-818 -1120,-874 -1070,-927 -1030,-980 -980,-1029 -930,-1075 -870,-1120 -820,-1162 -760,-1200 -700,-1236 -640,-1269 -570,-1298 -520,-1326 -440,-1349 -380,-1369 -310,-1386 -240,-1399 -180,-1410 -100,-1417 -40,-1420 40,-1420 100,-1417 180,-1409 240,-1400 310,-1386 380,-1369 440,-1349 520,-1325 570,-1299 640,-1269 700,-1236 760,-1200 820,-1161 870,-1120 930,-1076 980,-1029 1030,-979 1070,-928 1120,-874 1160,-818 1200,-760 1240,-700 1270,-639 1300,-576 1320,-511 1350,-445 1370,-379 1390,-311 1400,-243 1410,-174 1410,-105 1420,-35 1420,35 1420,105 1410,174 1400,243 1390,311 1370,379 1340,445 1330,511 1300,576 1270,639 1230,700 1200,760 1160,818 1120,874 1080,928 1030,979 980,1029 930,1076 760,979 -10160,8526 -620,-850 z m -10830,-6666 1290,105 1250,199 1240,289 1210,381 1180,468 1150,554 1100,637 1050,716 1000,792 930,862 870,929 180,221 7750,-6499 -690,-789 -920,-973 -980,-927 -1010,-878 -1060,-827 -1100,-774 -1140,-719 -1170,-662 -1200,-605 -1230,-544 -1250,-484 -1280,-421 -1290,-359 -1310,-294 -1330,-230 -1330,-165 -1340,-99 -570,-20 z m -22360,34101 850,1039 900,996 950,950 1000,903 1040,852 1080,801 1110,747 1160,690 1180,634 1220,575 1240,514 1260,453 1290,390 1300,326 1320,263 1330,197 1340,132 1230,62 v -2103 l -1130,-59 -1230,-124 -1230,-185 -1210,-244 -1210,-304 -1180,-363 -1170,-420 -1150,-477 -1120,-533 -1090,-587 -1060,-640 -1030,-692 -1000,-741 -960,-789 -920,-835 -870,-879 -830,-922 -790,-960 -730,-999 -690,-1033 -640,-1065 -580,-1096 -530,-1123 -470,-1147 -420,-1169 -350,-1188 -300,-1204 -240,-1218 -180,-1228 -120,-1235 -60,-1239 v -1241 l 70,-1239 120,-1235 180,-1227 250,-1217 300,-1203 360,-1186 430,-1168 470,-1145 540,-1121 580,-1093 640,-1063 690,-1030 740,-996 790,-957 840,-918 880,-876 920,-831 960,-785 1000,-738 1030,-687 1070,-636 1090,-582 1130,-529 1140,-472 1170,-416 1190,-358 1200,-299 1220,-239 1230,-180 1230,-119 1030,-51 v -2103 l -1230,62 -1340,131 -1330,198 -1320,262 -1300,326 -1290,391 -1260,452 -1240,515 -1220,574 -1180,634 -1160,691 -1110,746 -1080,801 -1040,853 -1000,902 -950,951 -900,996 -850,1038 -800,1080 -750,1117 -690,1153 -640,1186 -570,1215 -510,1241 -460,1266 -390,1286 -320,1304 -270,1318 -190,1329 -130,1338 -70,1342 v 1344 l 70,1343 130,1337 190,1330 270,1318 320,1303 390,1287 460,1265 510,1242 570,1215 640,1185 690,1153 750,1117 z m 13580,5745 1120,365 1130,310 1150,255 1160,197 1170,141 1490,93 v -6698 l -1280,-106 -1250,-198 -1240,-290 -1210,-380 -1190,-469 -1140,-554 -1100,-637 -1050,-716 -1000,-791 -930,-863 -870,-929 -800,-990 -720,-1046 -640,-1097 -560,-1141 -480,-1179 -390,-1211 -300,-1236 -200,-1255 -110,-1266 -20,-1271 70,-1270 170,-1260 260,-1245 350,-1222 440,-1193 520,-1158 610,-1116 690,-1068 770,-1014 840,-955 910,-891 970,-821 1020,-748 1080,-671 1130,-589 1170,-504 1200,-418 1230,-328 1250,-236 1260,-144 540,-32 v -6701 l -1050,57 -1170,119 -1170,176 -1150,233 -1140,290 -1120,345 -1110,399 -1090,454 -1060,506 -1030,558 -1010,608 -980,656 -940,704 -910,749 -870,793 -830,834 -780,874 -750,912 -690,947 -650,980 -610,1011 -550,1039 -500,1065 -440,1088 -400,1109 -340,1127 -280,1142 -220,1154 -170,1165 -110,1171 -60,1175 10,1176 60,1175 120,1170 170,1164 230,1153 290,1140 350,1125 400,1106 450,1085 510,1062 560,1036 600,1007 660,976 700,943 750,907 800,869 830,830 870,787 920,743 940,698 980,651 1010,601 1040,552 1070,499 1090,447 z m 19710,2162 1200,-604 1170,-663 1140,-719 1100,-774 1060,-827 1010,-878 980,-926 920,-974 690,-789 -7750,-6498 -680,769 -910,891 -970,822 -1030,748 -1080,670 -1120,589 -1170,505 -1200,417 -1230,328 -1250,237 -1260,144 -550,32 v 10117 l 1240,-62 1340,-132 1330,-197 1310,-263 1310,-326 1280,-390 1270,-453 1240,-514 z"
         style="fill:#1c273a"
         id="path225" />
    </g>
    <g
       id="LWPOLYLINE44"
       serif:id="LWPOLYLINE"
       transform="matrix(6.6145833e-4,0,0,6.6145833e-4,-1382.5814,206.25329)">
      <path
         d="m 2204380,-234351 -260,-282 -270,-275 -280,-268 -280,-262 -290,-255 -300,-247 -300,-240 -300,-233 -320,-225 -320,-217 -320,-209 -330,-201 -330,-193 -340,-185 -340,-177 -350,-168 -350,-160 -360,-150 -360,-142 -360,-134 -360,-124 -370,-115 -370,-107 -380,-97 -370,-88 -380,-78 -380,-70 -380,-60 -380,-51 -380,-41 -390,-32 -380,-22 -390,-13 -380,-4 -390,6 -390,15 -380,25 -380,34 -390,44 -380,53 -380,63 -380,71 -380,81 -370,91 -370,99 -370,109 -370,117 -370,127 -360,135 -350,145 -360,153 -350,161 -340,171 -350,178 -330,187 -340,196 -320,203 -330,211 -310,219 -320,227 -300,235 -300,242 -300,249 -280,256 -290,263 -270,271 -270,276 -260,284 -260,290 -240,295 -240,302 -240,308 -220,313 -220,319 -210,324 -200,329 -190,333 -190,339 -170,343 -170,347 -160,351 -150,355 -140,358 -140,362 -120,365 -120,368 -100,371 -100,373 -90,376 -80,377 -70,380 -60,381 -50,382 -40,383 -30,385 -20,385 -20,385 v 386 l 10,385 10,386 30,384 30,385 40,383 60,382 60,380 70,379 80,377 90,375 100,373 110,370 120,367 130,364 130,361 150,358 150,354 160,350 170,346 180,342 190,337 190,333 200,328 220,322 210,318 230,311 240,307 240,300 250,294 250,288 270,282 270,275 270,269 290,261 290,255 290,247 300,240 310,233 320,225 310,217 330,209 330,202 330,193 340,185 340,176 350,168 350,160 360,151 350,142 370,133 360,124 370,116 370,106 370,97 380,88 380,79 380,69 380,60 380,51 380,41 390,32 380,23 390,13 380,3 390,-6 380,-15 390,-25 380,-34 390,-44 380,-53 380,-62 380,-72 370,-81 380,-90 370,-100 370,-108 370,-118 360,-127 360,-135 360,-144 360,-153 350,-162 340,-170 340,-179 340,-187 330,-195 330,-204 320,-211 320,-219 310,-227 310,-234 300,-242 290,-249 290,-257 280,-263 280,-270 270,-277 260,-284 250,-289 250,-296 240,-302 230,-308 230,-313 100,-153 10160,8526 -320,425 -440,555 -460,543 -470,532 -490,521 -490,508 -510,496 -520,484 -530,470 -550,457 -550,444 -570,430 -570,416 -590,402 -590,388 -610,372 -610,358 -620,342 -630,328 -640,311 -650,296 -650,280 -660,264 -670,247 -670,231 -670,215 -690,198 -680,181 -700,164 -690,147 -700,130 -700,113 -700,95 -710,79 -710,60 -710,44 -710,26 -710,9 -710,-9 -710,-26 -710,-44 -700,-60 -710,-79 -700,-95 -700,-113 -700,-130 -700,-147 -690,-164 -690,-181 -680,-198 -670,-215 -680,-231 -660,-247 -660,-264 -650,-280 -650,-296 -640,-311 -630,-328 -620,-342 -620,-358 -600,-372 -600,-388 -580,-402 -580,-416 -560,-430 -560,-444 -540,-457 -530,-470 -520,-484 -510,-496 -500,-508 -480,-521 -470,-532 -460,-543 -440,-555 -430,-565 -420,-576 -400,-586 -390,-595 -370,-605 -360,-614 -340,-622 -330,-630 -310,-639 -300,-645 -270,-653 -270,-660 -250,-666 -230,-671 -210,-678 -200,-682 -180,-687 -160,-691 -150,-695 -130,-698 -110,-701 -100,-704 -80,-706 -60,-708 -40,-709 -30,-710 -10,-710 10,-710 30,-710 40,-709 60,-708 80,-706 100,-703 110,-702 130,-698 150,-695 160,-691 180,-687 200,-682 210,-677 230,-672 250,-666 270,-659 270,-653 300,-646 310,-638 330,-631 340,-622 360,-614 370,-605 390,-595 400,-586 420,-575 430,-566 440,-554 460,-544 470,-532 480,-520 500,-509 510,-496 520,-483 530,-471 540,-457 560,-444 560,-430 580,-416 580,-402 600,-387 600,-373 620,-358 620,-342 630,-327 640,-312 650,-296 650,-280 660,-263 660,-248 680,-231 670,-214 680,-198 690,-181 690,-164 700,-147 700,-131 700,-112 700,-96 710,-78 700,-61 710,-44 710,-26 710,-9 710,9 710,26 710,44 710,61 710,78 700,96 700,112 700,131 690,147 700,164 680,181 690,198 670,214 670,231 670,248 660,263 650,280 650,296 640,312 630,327 620,342 610,358 610,373 590,387 590,402 570,416 570,430 550,444 550,457 530,471 520,483 510,496 490,509 490,520 470,532 460,544 440,554 320,425 -10160,8526 -160,-232 -220,-312 -240,-306 -240,-301 -250,-294 z"
         style="fill:none;stroke:#000000;stroke-width:102.05px"
         id="path226" />
    </g>
    <g
       id="LWPOLYLINE45"
       serif:id="LWPOLYLINE"
       transform="matrix(6.6145833e-4,0,0,6.6145833e-4,-1382.5814,206.25329)">
      <path
         d="m 2193550,-241017 h 20 l 420,25 420,35 430,45 420,56 410,66 420,77 420,86 410,97 410,106 410,117 400,127 400,137 400,146 390,156 390,166 390,176 380,184 380,194 370,204 370,212 360,221 360,230 350,239 340,247 340,256 330,264 330,272 310,280 320,287 300,295 300,303 290,309 280,317 180,221 7750,-6499 -240,-285 -450,-504 -450,-492 -470,-481 -480,-470 -500,-457 -500,-445 -510,-433 -530,-420 -530,-407 -550,-394 -550,-380 -570,-366 -570,-353 -580,-338 -590,-324 -590,-310 -610,-295 -610,-279 -620,-265 -620,-250 -630,-234 -640,-218 -640,-203 -640,-188 -650,-171 -660,-155 -650,-139 -660,-123 -670,-107 -660,-91 -670,-74 -670,-57 -670,-42 -570,-20 z"
         style="fill:none;stroke:#000000;stroke-width:102.05px"
         id="path227" />
    </g>
    <g
       id="LWPOLYLINE46"
       serif:id="LWPOLYLINE"
       transform="matrix(6.6145833e-4,0,0,6.6145833e-4,-1382.5814,206.25329)"
       style="fill:#ffffff">
      <path
         d="m 2184770,-201171 560,189 560,176 560,162 570,148 570,135 580,120 580,105 580,92 580,77 590,64 580,48 590,34 320,11 v -6698 l -10,-1 -420,-25 -430,-35 -420,-45 -420,-56 -420,-66 -410,-76 -420,-87 -410,-96 -410,-107 -410,-117 -400,-127 -400,-136 -400,-147 -400,-156 -390,-166 -380,-175 -380,-185 -380,-194 -370,-203 -370,-213 -360,-221 -360,-230 -350,-239 -340,-247 -340,-256 -330,-264 -330,-271 -320,-280 -310,-288 -300,-295 -300,-302 -290,-310 -280,-317 -270,-323 -270,-330 -260,-337 -250,-343 -240,-349 -230,-354 -220,-360 -220,-366 -200,-371 -200,-376 -190,-380 -170,-385 -170,-389 -160,-393 -150,-397 -140,-400 -130,-404 -120,-407 -110,-409 -100,-413 -90,-414 -70,-416 -70,-419 -60,-420 -50,-421 -40,-422 -20,-423 -20,-424 -10,-424 10,-423 10,-424 20,-423 40,-423 50,-421 50,-420 70,-419 70,-417 90,-415 100,-413 100,-410 120,-408 130,-404 130,-401 150,-398 160,-394 160,-391 180,-385 180,-382 200,-377 200,-372 210,-367 220,-361 230,-356 240,-351 250,-344 250,-338 270,-332 270,-325 280,-319 290,-311 290,-304 310,-297 310,-290 310,-282 330,-274 330,-265 330,-258 340,-250 350,-240 360,-233 360,-223 360,-215 370,-205 380,-197 380,-187 390,-178 380,-168 400,-158 390,-149 410,-140 400,-129 410,-119 410,-109 410,-100 410,-89 420,-79 420,-68 420,-59 420,-48 420,-37 420,-28 120,-4 v -6701 l -470,19 -580,38 -590,52 -580,67 -590,81 -580,95 -570,110 -580,123 -570,138 -570,152 -560,165 -560,180 -560,193 -550,206 -550,220 -540,234 -530,246 -530,260 -520,273 -510,285 -510,298 -500,310 -490,322 -490,334 -470,346 -470,358 -460,369 -450,380 -440,391 -430,402 -420,412 -410,422 -390,432 -390,442 -380,451 -370,461 -350,469 -340,478 -340,486 -310,494 -310,502 -300,509 -280,516 -270,523 -250,530 -250,535 -230,541 -210,547 -210,552 -190,557 -170,562 -170,565 -140,569 -140,573 -120,576 -100,578 -100,582 -70,583 -70,585 -40,586 -40,587 -20,588 v 588 l 10,588 20,588 40,587 50,586 70,584 80,583 90,581 110,578 120,575 140,572 150,568 170,564 180,561 190,555 210,551 220,545 230,540 250,534 260,528 270,522 290,514 290,507 310,500 330,492 330,484 350,476 350,467 370,458 380,449 390,440 410,429 410,420 420,410 430,399 440,388 460,377 460,366 470,355 470,343 490,332 490,319 510,307 500,294 520,282 520,270 530,256 540,243 540,231 550,216 z"
         style="fill:#ffffff;stroke:#000000;stroke-width:102.05px"
         id="path228" />
    </g>
    <g
       id="LWPOLYLINE47"
       serif:id="LWPOLYLINE"
       transform="matrix(6.6145833e-4,0,0,6.6145833e-4,-1382.5814,206.25329)"
       style="fill:#cc6d3d;fill-opacity:1">
      <path
         d="m 2171190,-206916 420,525 430,514 440,503 460,493 470,481 480,469 490,457 510,446 510,432 530,420 530,407 550,394 550,380 560,367 580,352 580,338 590,325 590,309 610,295 610,280 610,264 630,250 630,234 630,219 650,203 640,187 650,171 650,155 660,140 660,123 670,106 660,91 670,74 670,58 670,41 560,21 v -2103 l -510,-20 -620,-39 -610,-55 -620,-69 -620,-85 -610,-100 -610,-115 -600,-129 -610,-145 -600,-159 -590,-174 -590,-189 -590,-203 -580,-217 -580,-232 -570,-245 -560,-260 -560,-273 -550,-287 -540,-300 -540,-314 -520,-326 -520,-340 -510,-352 -510,-364 -490,-377 -480,-389 -480,-400 -460,-412 -460,-423 -440,-435 -430,-444 -420,-456 -410,-466 -400,-475 -390,-485 -370,-495 -360,-504 -350,-512 -340,-521 -330,-529 -310,-536 -300,-544 -280,-552 -270,-558 -260,-565 -240,-570 -230,-577 -220,-582 -200,-587 -180,-592 -170,-596 -160,-600 -140,-604 -130,-608 -110,-610 -100,-613 -80,-615 -70,-617 -50,-618 -40,-619 -20,-620 -10,-621 10,-620 30,-620 40,-619 50,-618 70,-617 80,-615 100,-612 120,-610 130,-607 140,-603 160,-600 180,-595 180,-591 210,-587 220,-581 230,-576 240,-569 260,-564 280,-557 280,-550 300,-543 320,-536 320,-527 340,-520 350,-510 370,-503 370,-493 390,-483 400,-474 420,-464 420,-454 430,-443 450,-433 450,-421 470,-410 480,-399 480,-386 490,-375 510,-363 510,-349 520,-338 530,-324 540,-312 540,-298 550,-284 560,-271 570,-258 570,-243 570,-229 580,-215 590,-201 590,-186 600,-172 600,-157 600,-142 610,-127 610,-112 610,-98 620,-82 620,-67 610,-52 620,-37 410,-14 v -2103 l -560,20 -670,42 -670,57 -670,74 -660,91 -670,107 -660,123 -660,139 -650,155 -650,171 -640,188 -650,203 -630,218 -630,234 -630,250 -610,265 -610,279 -610,295 -590,310 -590,324 -580,338 -580,353 -560,366 -550,380 -550,394 -530,407 -530,420 -510,433 -510,445 -490,457 -480,470 -470,481 -460,492 -440,504 -430,514 -420,524 -410,535 -390,545 -380,554 -370,563 -350,573 -340,580 -330,589 -310,597 -290,604 -280,611 -260,617 -250,624 -240,630 -220,636 -200,640 -190,646 -170,650 -150,654 -140,657 -130,661 -100,663 -90,666 -80,668 -50,670 -50,671 -20,671 -10,672 10,672 20,672 50,671 50,669 80,668 90,666 100,664 130,660 140,658 150,654 170,649 190,646 200,641 220,635 240,630 250,624 260,618 280,611 290,604 310,596 330,589 340,581 350,572 370,563 380,554 390,545 z"
         style="fill:#cc6d3d;fill-opacity:1;stroke:#000000;stroke-width:102.05px"
         id="path229" />
    </g>
    <g
       id="LWPOLYLINE48"
       serif:id="LWPOLYLINE"
       transform="matrix(6.6145833e-4,0,0,6.6145833e-4,-1382.5814,206.25329)">
      <path
         d="m 2204480,-199009 610,-295 590,-309 590,-325 580,-338 570,-352 570,-367 550,-380 550,-394 530,-407 530,-420 510,-432 500,-446 500,-457 480,-469 470,-481 450,-493 450,-503 240,-286 -7750,-6498 -110,139 -280,319 -290,311 -300,305 -300,297 -310,289 -310,282 -330,274 -330,266 -330,258 -350,249 -350,241 -350,232 -360,224 -370,214 -370,206 -370,196 -380,187 -390,178 -390,168 -390,159 -400,149 -400,139 -400,129 -410,119 -410,110 -410,99 -410,89 -420,79 -420,69 -420,58 -420,48 -420,38 -430,27 -120,5 v 10117 l 570,-21 670,-41 670,-58 670,-74 660,-91 670,-106 660,-123 650,-140 660,-155 650,-171 640,-187 640,-203 640,-219 630,-234 620,-250 620,-264 z"
         style="fill:none;stroke:#000000;stroke-width:102.05px"
         id="path230" />
    </g>
    <g
       id="POINT2"
       serif:id="POINT"
       transform="matrix(6.6145833e-4,0,0,6.6145833e-4,-1382.5814,206.25329)">
      <path
         d="m 2192770,-223763 v 0"
         style="fill:none;stroke:#000000;stroke-width:56.69px"
         id="path231" />
    </g>
    <g
       id="HATCH95"
       serif:id="HATCH"
       transform="matrix(6.6145833e-4,0,0,6.6145833e-4,-1382.5814,206.25329)">
      <path
         d="m 2191280,-236867 c 0,-824 670,-1493 1490,-1493 830,0 1500,669 1500,1493 0,824 -670,1492 -1500,1492 -820,0 -1490,-668 -1490,-1492 z m 850,0 c 0,-355 290,-642 640,-642 360,0 650,287 650,642 0,355 -290,642 -650,642 -350,0 -640,-287 -640,-642 z"
         style="fill:#1c273a"
         id="path232" />
    </g>
    <g
       id="LWPOLYLINE49"
       serif:id="LWPOLYLINE"
       transform="matrix(6.6145833e-4,0,0,6.6145833e-4,-1382.5814,206.25329)">
      <path
         d="m 2191280,-236867 c 0,-824 670,-1493 1490,-1493 830,0 1500,669 1500,1493 0,824 -670,1492 -1500,1492 -820,0 -1490,-668 -1490,-1492 z"
         style="fill:none;stroke:#000000;stroke-width:102.05px"
         id="path233" />
    </g>
    <g
       id="LWPOLYLINE50"
       serif:id="LWPOLYLINE"
       transform="matrix(6.6145833e-4,0,0,6.6145833e-4,-1382.5814,206.25329)"
       style="fill:#ffffff">
      <path
         d="m 2192130,-236867 c 0,-355 290,-642 640,-642 360,0 650,287 650,642 0,355 -290,642 -650,642 -350,0 -640,-287 -640,-642 z"
         style="fill:#ffffff;stroke:#000000;stroke-width:102.05px"
         id="path234" />
    </g>
    <g
       id="HATCH96"
       serif:id="HATCH"
       transform="matrix(6.6145833e-4,0,0,6.6145833e-4,-1382.5814,206.25329)">
      <path
         d="m 2191280,-210659 c 0,825 670,1493 1490,1493 830,0 1500,-668 1500,-1493 0,-824 -670,-1492 -1500,-1492 -820,0 -1490,668 -1490,1492 z m 850,0 c 0,355 290,643 640,643 360,0 650,-288 650,-643 0,-354 -290,-642 -650,-642 -350,0 -640,288 -640,642 z"
         style="fill:#1c273a"
         id="path235" />
    </g>
    <g
       id="LWPOLYLINE51"
       serif:id="LWPOLYLINE"
       transform="matrix(6.6145833e-4,0,0,6.6145833e-4,-1382.5814,206.25329)">
      <path
         d="m 2191280,-210659 c 0,825 670,1493 1490,1493 830,0 1500,-668 1500,-1493 0,-824 -670,-1492 -1500,-1492 -820,0 -1490,668 -1490,1492 z"
         style="fill:none;stroke:#000000;stroke-width:102.05px"
         id="path236" />
    </g>
    <g
       id="LWPOLYLINE52"
       serif:id="LWPOLYLINE"
       transform="matrix(6.6145833e-4,0,0,6.6145833e-4,-1382.5814,206.25329)"
       style="fill:#ffffff">
      <path
         d="m 2192130,-210659 c 0,355 290,643 640,643 360,0 650,-288 650,-643 0,-354 -290,-642 -650,-642 -350,0 -640,288 -640,642 z"
         style="fill:#ffffff;stroke:#000000;stroke-width:102.05px"
         id="path237" />
    </g>
    <g
       id="HATCH97"
       serif:id="HATCH"
       transform="matrix(6.6145833e-4,0,0,6.6145833e-4,-1382.5814,206.25329)">
      <path
         d="m 2185510,-236318 c 0,-824 670,-1493 1490,-1493 830,0 1500,669 1500,1493 0,824 -670,1493 -1500,1493 -820,0 -1490,-669 -1490,-1493 z m 850,0 c 0,-355 290,-642 640,-642 360,0 650,287 650,642 0,355 -290,642 -650,642 -350,0 -640,-287 -640,-642 z"
         style="fill:#1c273a"
         id="path238" />
    </g>
    <g
       id="LWPOLYLINE53"
       serif:id="LWPOLYLINE"
       transform="matrix(6.6145833e-4,0,0,6.6145833e-4,-1382.5814,206.25329)">
      <path
         d="m 2185510,-236318 c 0,-824 670,-1493 1490,-1493 830,0 1500,669 1500,1493 0,824 -670,1493 -1500,1493 -820,0 -1490,-669 -1490,-1493 z"
         style="fill:none;stroke:#000000;stroke-width:102.05px"
         id="path239" />
    </g>
    <g
       id="LWPOLYLINE54"
       serif:id="LWPOLYLINE"
       transform="matrix(6.6145833e-4,0,0,6.6145833e-4,-1382.5814,206.25329)"
       style="fill:#ffffff">
      <path
         d="m 2186360,-236318 c 0,-355 290,-642 640,-642 360,0 650,287 650,642 0,355 -290,642 -650,642 -350,0 -640,-287 -640,-642 z"
         style="fill:#ffffff;stroke:#000000;stroke-width:102.05px"
         id="path240" />
    </g>
    <g
       id="HATCH98"
       serif:id="HATCH"
       transform="matrix(6.6145833e-4,0,0,6.6145833e-4,-1382.5814,206.25329)">
      <path
         d="m 2200980,-245085 c 0,-877 -710,-1588 -1590,-1588 -880,0 -1590,711 -1590,1588 0,878 710,1589 1590,1589 880,0 1590,-711 1590,-1589 z"
         style="fill:#1c273a"
         id="path241" />
    </g>
    <g
       id="CIRCLE5"
       serif:id="CIRCLE"
       transform="matrix(6.6145833e-4,0,0,6.6145833e-4,-1382.5814,206.25329)">
      <path
         d="m 2199390,-243496 c 880,0 1590,-712 1590,-1589 0,-876 -710,-1588 -1590,-1588 -880,0 -1590,712 -1590,1588 0,877 710,1589 1590,1589 z"
         style="fill:none;stroke:#000000;stroke-width:102.05px"
         id="path242" />
    </g>
    <g
       id="HATCH99"
       serif:id="HATCH"
       transform="matrix(6.6145833e-4,0,0,6.6145833e-4,-1382.5814,206.25329)">
      <path
         d="m 2207000,-242168 c 0,-877 -710,-1588 -1590,-1588 -880,0 -1590,711 -1590,1588 0,877 710,1588 1590,1588 880,0 1590,-711 1590,-1588 z"
         style="fill:#1c273a"
         id="path243" />
    </g>
    <g
       id="CIRCLE6"
       serif:id="CIRCLE"
       transform="matrix(6.6145833e-4,0,0,6.6145833e-4,-1382.5814,206.25329)">
      <path
         d="m 2205410,-240580 c 880,0 1590,-711 1590,-1588 0,-876 -710,-1588 -1590,-1588 -880,0 -1590,712 -1590,1588 0,877 710,1588 1590,1588 z"
         style="fill:none;stroke:#000000;stroke-width:102.05px"
         id="path244" />
    </g>
    <g
       id="HATCH129"
       serif:id="HATCH"
       transform="matrix(6.6145833e-4,0,0,6.6145833e-4,-1382.5814,206.25329)">
      <path
         d="m 2150550,-223763 c 0,-824 660,-1492 1490,-1492 820,0 1490,668 1490,1492 0,824 -670,1493 -1490,1493 -830,0 -1490,-669 -1490,-1493 z m 850,0 c 0,-355 280,-642 640,-642 350,0 640,287 640,642 0,355 -290,642 -640,642 -360,0 -640,-287 -640,-642 z"
         style="fill:#1c273a"
         id="path351" />
    </g>
    <g
       id="LWPOLYLINE93"
       serif:id="LWPOLYLINE"
       transform="matrix(6.6145833e-4,0,0,6.6145833e-4,-1382.5814,206.25329)">
      <path
         d="m 2150550,-223763 c 0,-824 660,-1492 1490,-1492 820,0 1490,668 1490,1492 0,824 -670,1493 -1490,1493 -830,0 -1490,-669 -1490,-1493 z"
         style="fill:none;stroke:#000000;stroke-width:56.69px"
         id="path352" />
    </g>
    <g
       id="LWPOLYLINE94"
       serif:id="LWPOLYLINE"
       transform="matrix(6.6145833e-4,0,0,6.6145833e-4,-1382.5814,206.25329)"
       style="fill:#ffffff">
      <path
         d="m 2151400,-223763 c 0,-355 280,-642 640,-642 350,0 640,287 640,642 0,355 -290,642 -640,642 -360,0 -640,-287 -640,-642 z"
         style="fill:#ffffff;stroke:#000000;stroke-width:56.69px"
         id="path353" />
    </g>
    <g
       id="HATCH85"
       serif:id="HATCH"
       transform="matrix(6.6145833e-4,0,0,6.6145833e-4,-1382.5814,206.2533)">
      <path
         d="m 2176090,-234021 v 29 29 28 l -10,29 v 29 l -10,28 v 28 l -10,28 -10,28 v 28 l -10,28 -10,27 -10,27 -10,27 -10,27 -20,26 -10,26 -10,26 -20,25 -10,25 -20,25 -10,24 -20,24 -10,24 -20,23 -20,23 -20,22 -20,22 -20,21 -20,21 -20,20 -20,20 -20,19 -20,19 -20,18 -30,17 -20,18 -20,16 -30,16 -20,15 -30,15 -20,14 -30,13 -20,13 -30,12 -30,12 -20,11 -30,10 -30,10 -30,8 -20,9 -30,7 -30,7 -30,6 -30,6 -20,4 -30,4 -30,4 -30,2 -30,2 -30,1 -30,1 h -30 l -30,-1 -20,-2 -30,-2 -30,-3 -30,-4 -30,-4 -30,-6 -30,-5 -20,-7 -30,-7 -30,-8 -30,-9 -20,-9 -30,-10 -30,-10 -30,-12 -20,-12 -30,-12 -20,-13 -30,-14 -20,-15 -30,-15 -20,-15 -30,-16 -20,-17 -20,-18 -30,-18 -20,-18 -20,-19 -20,-20 -20,-20 -20,-20 -20,-21 -20,-22 -20,-22 -20,-22 -20,-23 -10,-24 -20,-23 -20,-25 -10,-24 -20,-25 -10,-25 -10,-26 -20,-26 -10,-26 -10,-26 -10,-27 -10,-27 -10,-28 -10,-27 -10,-28 v -28 l -10,-28 -10,-28 v -28 l -10,-29 v -29 -28 l -10,-29 v -29 -29 -29 -29 -28 -29 -29 l 10,-29 v -29 l 10,-28 v -29 l 10,-28 v -28 l 10,-28 10,-28 10,-27 10,-28 10,-27 10,-27 10,-26 10,-27 10,-26 10,-26 20,-25 10,-25 20,-25 10,-24 20,-24 20,-23 10,-24 20,-22 20,-22 20,-22 20,-21 20,-21 20,-21 20,-19 20,-20 20,-18 30,-18 20,-18 20,-17 30,-17 20,-16 30,-15 20,-15 30,-14 20,-13 30,-13 20,-12 30,-12 30,-10 20,-11 30,-9 30,-9 30,-8 20,-8 30,-7 30,-6 30,-5 30,-5 30,-4 20,-3 30,-3 30,-2 30,-1 30,-1 30,1 30,1 30,1 30,3 20,3 30,3 30,5 30,5 30,6 30,6 20,8 30,7 30,9 30,9 20,10 30,11 30,11 20,12 30,12 30,14 20,13 30,15 20,15 30,16 20,16 20,17 30,17 20,18 20,18 20,19 20,20 20,20 30,21 10,21 20,21 20,22 20,23 20,23 20,23 10,24 20,24 10,24 20,25 10,26 20,25 10,26 10,26 10,27 10,27 10,27 10,27 10,27 10,28 10,28 v 28 l 10,28 10,29 v 28 29 l 10,29 v 28 29 29 29 29 z"
         style="fill:#1c273a"
         id="path206" />
    </g>
    <g
       id="_2DPOLYLINE69"
       serif:id="2DPOLYLINE"
       transform="matrix(6.6145833e-4,0,0,6.6145833e-4,-1382.5814,206.2533)">
      <path
         d="m 2176090,-234021 v 29 29 28 l -10,29 v 29 l -10,28 v 28 l -10,28 -10,28 v 28 l -10,28 -10,27 -10,27 -10,27 -10,27 -20,26 -10,26 -10,26 -20,25 -10,25 -20,25 -10,24 -20,24 -10,24 -20,23 -20,23 -20,22 -20,22 -20,21 -20,21 -20,20 -20,20 -20,19 -20,19 -20,18 -30,17 -20,18 -20,16 -30,16 -20,15 -30,15 -20,14 -30,13 -20,13 -30,12 -30,12 -20,11 -30,10 -30,10 -30,8 -20,9 -30,7 -30,7 -30,6 -30,6 -20,4 -30,4 -30,4 -30,2 -30,2 -30,1 -30,1 h -30 l -30,-1 -20,-2 -30,-2 -30,-3 -30,-4 -30,-4 -30,-6 -30,-5 -20,-7 -30,-7 -30,-8 -30,-9 -20,-9 -30,-10 -30,-10 -30,-12 -20,-12 -30,-12 -20,-13 -30,-14 -20,-15 -30,-15 -20,-15 -30,-16 -20,-17 -20,-18 -30,-18 -20,-18 -20,-19 -20,-20 -20,-20 -20,-20 -20,-21 -20,-22 -20,-22 -20,-22 -20,-23 -10,-24 -20,-23 -20,-25 -10,-24 -20,-25 -10,-25 -10,-26 -20,-26 -10,-26 -10,-26 -10,-27 -10,-27 -10,-28 -10,-27 -10,-28 v -28 l -10,-28 -10,-28 v -28 l -10,-29 v -29 -28 l -10,-29 v -29 -29 -29 -29 -28 -29 -29 l 10,-29 v -29 l 10,-28 v -29 l 10,-28 v -28 l 10,-28 10,-28 10,-27 10,-28 10,-27 10,-27 10,-26 10,-27 10,-26 10,-26 20,-25 10,-25 20,-25 10,-24 20,-24 20,-23 10,-24 20,-22 20,-22 20,-22 20,-21 20,-21 20,-21 20,-19 20,-20 20,-18 30,-18 20,-18 20,-17 30,-17 20,-16 30,-15 20,-15 30,-14 20,-13 30,-13 20,-12 30,-12 30,-10 20,-11 30,-9 30,-9 30,-8 20,-8 30,-7 30,-6 30,-5 30,-5 30,-4 20,-3 30,-3 30,-2 30,-1 30,-1 30,1 30,1 30,1 30,3 20,3 30,3 30,5 30,5 30,6 30,6 20,8 30,7 30,9 30,9 20,10 30,11 30,11 20,12 30,12 30,14 20,13 30,15 20,15 30,16 20,16 20,17 30,17 20,18 20,18 20,19 20,20 20,20 30,21 10,21 20,21 20,22 20,23 20,23 20,23 10,24 20,24 10,24 20,25 10,26 20,25 10,26 10,26 10,27 10,27 10,27 10,27 10,27 10,28 10,28 v 28 l 10,28 10,29 v 28 29 l 10,29 v 28 29 29 29 29 z"
         style="fill:none;stroke:#000000;stroke-width:102.05px"
         id="path207" />
    </g>
    <g
       id="HATCH86"
       serif:id="HATCH"
       transform="matrix(6.6145833e-4,0,0,6.6145833e-4,-1382.5814,206.2533)">
      <path
         d="m 2179370,-238292 v 29 29 l -10,29 v 28 l -10,29 v 28 l -10,29 v 28 l -10,28 -10,28 -10,27 -10,28 -10,27 -10,27 -10,26 -10,27 -10,26 -20,25 -10,26 -10,25 -20,25 -10,24 -20,24 -20,23 -10,23 -20,23 -20,22 -20,22 -20,21 -20,21 -20,20 -20,20 -20,19 -20,19 -30,18 -20,18 -20,17 -30,16 -20,16 -30,16 -20,14 -30,14 -20,14 -30,13 -20,12 -30,11 -30,11 -20,10 -30,10 -30,9 -30,8 -20,8 -30,6 -30,7 -30,5 -30,5 -30,4 -30,3 -20,3 -30,2 -30,1 h -30 -30 l -30,-1 -30,-1 -30,-3 -20,-3 -30,-3 -30,-5 -30,-5 -30,-6 -30,-6 -20,-8 -30,-8 -30,-8 -30,-9 -20,-10 -30,-11 -30,-11 -20,-12 -30,-13 -30,-13 -20,-14 -30,-14 -20,-15 -30,-16 -20,-16 -20,-17 -30,-17 -20,-18 -20,-19 -20,-19 -20,-19 -30,-20 -20,-21 -20,-21 -10,-21 -20,-22 -20,-23 -20,-23 -20,-23 -10,-24 -20,-24 -10,-25 -20,-25 -10,-25 -20,-25 -10,-26 -10,-26 -10,-27 -10,-27 -10,-27 -10,-27 -10,-28 -10,-27 -10,-28 v -28 l -10,-29 -10,-28 v -28 -29 l -10,-29 v -29 -28 -29 -29 -29 -29 -29 -29 -28 l 10,-29 v -29 l 10,-28 v -28 l 10,-29 10,-28 v -27 l 10,-28 10,-27 10,-27 10,-27 10,-27 20,-26 10,-26 10,-26 20,-26 10,-25 20,-24 10,-25 20,-23 10,-24 20,-23 20,-23 20,-22 20,-22 20,-21 20,-21 20,-20 20,-20 20,-19 20,-19 20,-18 30,-18 20,-17 20,-16 30,-16 20,-15 30,-15 20,-14 30,-14 20,-12 30,-13 30,-11 20,-11 30,-10 30,-10 30,-9 20,-8 30,-7 30,-7 30,-6 30,-6 20,-4 30,-4 30,-4 30,-2 30,-2 30,-2 h 30 30 l 30,1 20,2 30,2 30,3 30,4 30,4 30,5 30,6 20,7 30,7 30,8 30,8 20,10 30,10 30,10 20,12 30,11 30,13 20,13 30,14 20,14 30,15 20,16 30,16 20,17 20,17 30,18 20,19 20,19 20,19 20,21 20,20 20,21 20,22 20,22 20,22 20,23 10,24 20,23 20,24 10,25 20,25 10,25 10,26 20,26 10,26 10,26 10,27 10,27 10,27 10,28 10,28 v 28 l 10,28 10,28 v 28 l 10,29 v 28 29 l 10,29 v 29 29 29 28 z"
         style="fill:#1c273a"
         id="path208" />
    </g>
    <g
       id="_2DPOLYLINE70"
       serif:id="2DPOLYLINE"
       transform="matrix(6.6145833e-4,0,0,6.6145833e-4,-1382.5814,206.2533)">
      <path
         d="m 2179370,-238292 v 29 29 l -10,29 v 28 l -10,29 v 28 l -10,29 v 28 l -10,28 -10,28 -10,27 -10,28 -10,27 -10,27 -10,26 -10,27 -10,26 -20,25 -10,26 -10,25 -20,25 -10,24 -20,24 -20,23 -10,23 -20,23 -20,22 -20,22 -20,21 -20,21 -20,20 -20,20 -20,19 -20,19 -30,18 -20,18 -20,17 -30,16 -20,16 -30,16 -20,14 -30,14 -20,14 -30,13 -20,12 -30,11 -30,11 -20,10 -30,10 -30,9 -30,8 -20,8 -30,6 -30,7 -30,5 -30,5 -30,4 -30,3 -20,3 -30,2 -30,1 h -30 -30 l -30,-1 -30,-1 -30,-3 -20,-3 -30,-3 -30,-5 -30,-5 -30,-6 -30,-6 -20,-8 -30,-8 -30,-8 -30,-9 -20,-10 -30,-11 -30,-11 -20,-12 -30,-13 -30,-13 -20,-14 -30,-14 -20,-15 -30,-16 -20,-16 -20,-17 -30,-17 -20,-18 -20,-19 -20,-19 -20,-19 -30,-20 -20,-21 -20,-21 -10,-21 -20,-22 -20,-23 -20,-23 -20,-23 -10,-24 -20,-24 -10,-25 -20,-25 -10,-25 -20,-25 -10,-26 -10,-26 -10,-27 -10,-27 -10,-27 -10,-27 -10,-28 -10,-27 -10,-28 v -28 l -10,-29 -10,-28 v -28 -29 l -10,-29 v -29 -28 -29 -29 -29 -29 -29 -29 -28 l 10,-29 v -29 l 10,-28 v -28 l 10,-29 10,-28 v -27 l 10,-28 10,-27 10,-27 10,-27 10,-27 20,-26 10,-26 10,-26 20,-26 10,-25 20,-24 10,-25 20,-23 10,-24 20,-23 20,-23 20,-22 20,-22 20,-21 20,-21 20,-20 20,-20 20,-19 20,-19 20,-18 30,-18 20,-17 20,-16 30,-16 20,-15 30,-15 20,-14 30,-14 20,-12 30,-13 30,-11 20,-11 30,-10 30,-10 30,-9 20,-8 30,-7 30,-7 30,-6 30,-6 20,-4 30,-4 30,-4 30,-2 30,-2 30,-2 h 30 30 l 30,1 20,2 30,2 30,3 30,4 30,4 30,5 30,6 20,7 30,7 30,8 30,8 20,10 30,10 30,10 20,12 30,11 30,13 20,13 30,14 20,14 30,15 20,16 30,16 20,17 20,17 30,18 20,19 20,19 20,19 20,21 20,20 20,21 20,22 20,22 20,22 20,23 10,24 20,23 20,24 10,25 20,25 10,25 10,26 20,26 10,26 10,26 10,27 10,27 10,27 10,28 10,28 v 28 l 10,28 10,28 v 28 l 10,29 v 28 29 l 10,29 v 29 29 29 28 z"
         style="fill:none;stroke:#000000;stroke-width:102.05px"
         id="path209" />
    </g>
    <g
       id="HATCH87"
       serif:id="HATCH"
       transform="matrix(6.6145833e-4,0,0,6.6145833e-4,-1382.5814,206.2533)">
      <path
         d="m 2183640,-241569 v 29 29 l -10,29 v 29 28 l -10,29 -10,28 v 28 l -10,28 -10,28 -10,27 -10,28 -10,27 -10,27 -10,26 -10,27 -10,26 -10,26 -20,25 -10,25 -20,25 -10,24 -20,24 -20,23 -10,24 -20,22 -20,22 -20,22 -20,21 -20,21 -20,21 -20,19 -20,20 -20,18 -30,18 -20,18 -20,17 -30,17 -20,15 -30,16 -20,14 -30,15 -20,13 -30,13 -20,12 -30,11 -30,11 -20,11 -30,9 -30,9 -30,8 -20,8 -30,7 -30,6 -30,5 -30,5 -30,4 -20,3 -30,3 -30,2 -30,1 h -30 -30 l -30,-1 -30,-1 -30,-3 -20,-3 -30,-3 -30,-5 -30,-5 -30,-6 -30,-6 -20,-8 -30,-7 -30,-9 -30,-9 -20,-10 -30,-11 -30,-11 -20,-12 -30,-13 -30,-13 -20,-14 -30,-14 -20,-15 -30,-16 -20,-16 -20,-17 -30,-17 -20,-18 -20,-18 -20,-20 -20,-19 -20,-20 -20,-21 -20,-21 -20,-21 -20,-22 -20,-23 -20,-23 -20,-23 -10,-24 -20,-24 -10,-25 -20,-24 -10,-26 -20,-25 -10,-26 -10,-26 -10,-27 -10,-27 -10,-27 -10,-27 -10,-28 -10,-27 -10,-28 v -28 l -10,-28 -10,-29 v -28 -29 l -10,-29 v -28 -29 -29 -29 -29 -29 -29 -29 -28 l 10,-29 v -29 l 10,-28 v -28 l 10,-28 10,-28 10,-28 v -28 l 10,-27 10,-27 10,-27 10,-27 20,-26 10,-26 10,-26 20,-25 10,-25 20,-25 10,-24 20,-24 10,-24 20,-23 20,-23 20,-22 20,-22 20,-21 20,-21 20,-20 20,-20 20,-19 20,-19 20,-18 30,-18 20,-17 20,-16 30,-16 20,-15 30,-15 20,-14 30,-13 20,-13 30,-12 30,-12 20,-11 30,-10 30,-10 30,-8 20,-9 30,-7 30,-7 30,-6 30,-6 30,-4 20,-4 30,-4 30,-2 30,-2 30,-1 30,-1 h 30 l 30,1 20,2 30,2 30,3 30,4 30,4 30,6 30,5 20,7 30,7 30,8 30,9 20,9 30,10 30,10 30,12 20,12 30,12 20,13 30,14 20,14 30,16 20,15 30,16 20,17 20,18 30,18 20,18 20,19 20,20 20,20 20,20 20,21 20,22 20,22 20,22 20,23 10,24 20,23 20,25 10,24 20,25 10,25 10,26 20,26 10,26 10,26 10,27 10,27 10,28 10,27 10,28 v 28 l 10,28 10,28 v 28 l 10,29 v 29 l 10,28 v 29 29 29 29 29 z"
         style="fill:#1c273a"
         id="path210" />
    </g>
    <g
       id="_2DPOLYLINE71"
       serif:id="2DPOLYLINE"
       transform="matrix(6.6145833e-4,0,0,6.6145833e-4,-1382.5814,206.2533)">
      <path
         d="m 2183640,-241569 v 29 29 l -10,29 v 29 28 l -10,29 -10,28 v 28 l -10,28 -10,28 -10,27 -10,28 -10,27 -10,27 -10,26 -10,27 -10,26 -10,26 -20,25 -10,25 -20,25 -10,24 -20,24 -20,23 -10,24 -20,22 -20,22 -20,22 -20,21 -20,21 -20,21 -20,19 -20,20 -20,18 -30,18 -20,18 -20,17 -30,17 -20,15 -30,16 -20,14 -30,15 -20,13 -30,13 -20,12 -30,11 -30,11 -20,11 -30,9 -30,9 -30,8 -20,8 -30,7 -30,6 -30,5 -30,5 -30,4 -20,3 -30,3 -30,2 -30,1 h -30 -30 l -30,-1 -30,-1 -30,-3 -20,-3 -30,-3 -30,-5 -30,-5 -30,-6 -30,-6 -20,-8 -30,-7 -30,-9 -30,-9 -20,-10 -30,-11 -30,-11 -20,-12 -30,-13 -30,-13 -20,-14 -30,-14 -20,-15 -30,-16 -20,-16 -20,-17 -30,-17 -20,-18 -20,-18 -20,-20 -20,-19 -20,-20 -20,-21 -20,-21 -20,-21 -20,-22 -20,-23 -20,-23 -20,-23 -10,-24 -20,-24 -10,-25 -20,-24 -10,-26 -20,-25 -10,-26 -10,-26 -10,-27 -10,-27 -10,-27 -10,-27 -10,-28 -10,-27 -10,-28 v -28 l -10,-28 -10,-29 v -28 -29 l -10,-29 v -28 -29 -29 -29 -29 -29 -29 -29 -28 l 10,-29 v -29 l 10,-28 v -28 l 10,-28 10,-28 10,-28 v -28 l 10,-27 10,-27 10,-27 10,-27 20,-26 10,-26 10,-26 20,-25 10,-25 20,-25 10,-24 20,-24 10,-24 20,-23 20,-23 20,-22 20,-22 20,-21 20,-21 20,-20 20,-20 20,-19 20,-19 20,-18 30,-18 20,-17 20,-16 30,-16 20,-15 30,-15 20,-14 30,-13 20,-13 30,-12 30,-12 20,-11 30,-10 30,-10 30,-8 20,-9 30,-7 30,-7 30,-6 30,-6 30,-4 20,-4 30,-4 30,-2 30,-2 30,-1 30,-1 h 30 l 30,1 20,2 30,2 30,3 30,4 30,4 30,6 30,5 20,7 30,7 30,8 30,9 20,9 30,10 30,10 30,12 20,12 30,12 20,13 30,14 20,14 30,16 20,15 30,16 20,17 20,18 30,18 20,18 20,19 20,20 20,20 20,20 20,21 20,22 20,22 20,22 20,23 10,24 20,23 20,25 10,24 20,25 10,25 10,26 20,26 10,26 10,26 10,27 10,27 10,28 10,27 10,28 v 28 l 10,28 10,28 v 28 l 10,29 v 29 l 10,28 v 29 29 29 29 29 z"
         style="fill:none;stroke:#000000;stroke-width:102.05px"
         id="path211" />
    </g>
    <g
       id="HATCH88"
       serif:id="HATCH"
       transform="matrix(6.6145833e-4,0,0,6.6145833e-4,-1382.5814,206.2533)">
      <path
         d="m 2188610,-243628 v 28 29 29 l -10,29 v 28 l -10,29 v 28 l -10,28 -10,28 v 28 l -10,27 -10,28 -10,27 -10,27 -10,26 -20,27 -10,26 -10,26 -20,25 -10,25 -10,25 -20,24 -20,24 -10,23 -20,24 -20,22 -20,22 -20,22 -20,21 -20,21 -20,21 -20,19 -20,20 -20,18 -20,19 -30,17 -20,17 -20,17 -30,16 -20,15 -30,15 -20,14 -30,13 -20,13 -30,12 -30,12 -20,10 -30,11 -30,9 -30,9 -20,8 -30,8 -30,7 -30,6 -30,5 -20,5 -30,4 -30,3 -30,3 -30,2 -30,1 -30,1 -30,-1 -20,-1 -30,-1 -30,-3 -30,-3 -30,-3 -30,-5 -30,-5 -30,-6 -20,-6 -30,-7 -30,-8 -30,-9 -20,-9 -30,-10 -30,-11 -20,-11 -30,-12 -30,-12 -20,-14 -30,-13 -20,-15 -30,-15 -20,-16 -30,-16 -20,-17 -20,-17 -30,-18 -20,-18 -20,-19 -20,-20 -20,-20 -20,-21 -20,-21 -20,-21 -20,-22 -20,-23 -20,-23 -10,-23 -20,-24 -10,-24 -20,-24 -10,-25 -20,-26 -10,-25 -20,-26 -10,-26 -10,-27 -10,-27 -10,-27 -10,-27 -10,-27 -10,-28 v -28 l -10,-28 -10,-28 v -29 l -10,-28 v -29 -29 l -10,-28 v -29 -29 -29 -29 -29 -29 -29 l 10,-28 v -29 l 10,-28 v -29 l 10,-28 v -28 l 10,-28 10,-28 10,-28 10,-27 10,-27 10,-27 10,-27 10,-26 10,-26 20,-26 10,-25 10,-25 20,-25 10,-24 20,-24 20,-24 10,-23 20,-23 20,-22 20,-22 20,-21 20,-21 20,-20 20,-20 20,-19 30,-19 20,-18 20,-17 20,-18 30,-16 20,-16 30,-15 20,-15 30,-14 20,-13 30,-13 20,-12 30,-12 30,-11 20,-10 30,-10 30,-8 30,-9 20,-7 30,-7 30,-6 30,-5 30,-5 30,-4 30,-4 20,-2 30,-2 30,-1 30,-1 h 30 l 30,1 30,2 30,2 30,3 20,4 30,4 30,6 30,5 30,7 30,7 20,8 30,9 30,9 30,10 20,10 30,12 20,12 30,12 30,13 20,14 30,15 20,15 30,15 20,16 20,17 30,18 20,18 20,18 20,19 20,20 30,20 20,20 20,21 10,22 20,22 20,22 20,23 20,24 10,23 20,25 10,24 20,25 10,25 20,26 10,26 10,26 10,26 10,27 10,27 10,28 10,27 10,28 10,28 v 28 l 10,28 10,28 v 29 l 10,29 v 28 29 29 29 29 29 z"
         style="fill:#1c273a"
         id="path212" />
    </g>
    <g
       id="_2DPOLYLINE72"
       serif:id="2DPOLYLINE"
       transform="matrix(6.6145833e-4,0,0,6.6145833e-4,-1382.5814,206.2533)">
      <path
         d="m 2188610,-243628 v 28 29 29 l -10,29 v 28 l -10,29 v 28 l -10,28 -10,28 v 28 l -10,27 -10,28 -10,27 -10,27 -10,26 -20,27 -10,26 -10,26 -20,25 -10,25 -10,25 -20,24 -20,24 -10,23 -20,24 -20,22 -20,22 -20,22 -20,21 -20,21 -20,21 -20,19 -20,20 -20,18 -20,19 -30,17 -20,17 -20,17 -30,16 -20,15 -30,15 -20,14 -30,13 -20,13 -30,12 -30,12 -20,10 -30,11 -30,9 -30,9 -20,8 -30,8 -30,7 -30,6 -30,5 -20,5 -30,4 -30,3 -30,3 -30,2 -30,1 -30,1 -30,-1 -20,-1 -30,-1 -30,-3 -30,-3 -30,-3 -30,-5 -30,-5 -30,-6 -20,-6 -30,-7 -30,-8 -30,-9 -20,-9 -30,-10 -30,-11 -20,-11 -30,-12 -30,-12 -20,-14 -30,-13 -20,-15 -30,-15 -20,-16 -30,-16 -20,-17 -20,-17 -30,-18 -20,-18 -20,-19 -20,-20 -20,-20 -20,-21 -20,-21 -20,-21 -20,-22 -20,-23 -20,-23 -10,-23 -20,-24 -10,-24 -20,-24 -10,-25 -20,-26 -10,-25 -20,-26 -10,-26 -10,-27 -10,-27 -10,-27 -10,-27 -10,-27 -10,-28 v -28 l -10,-28 -10,-28 v -29 l -10,-28 v -29 -29 l -10,-28 v -29 -29 -29 -29 -29 -29 -29 l 10,-28 v -29 l 10,-28 v -29 l 10,-28 v -28 l 10,-28 10,-28 10,-28 10,-27 10,-27 10,-27 10,-27 10,-26 10,-26 20,-26 10,-25 10,-25 20,-25 10,-24 20,-24 20,-24 10,-23 20,-23 20,-22 20,-22 20,-21 20,-21 20,-20 20,-20 20,-19 30,-19 20,-18 20,-17 20,-18 30,-16 20,-16 30,-15 20,-15 30,-14 20,-13 30,-13 20,-12 30,-12 30,-11 20,-10 30,-10 30,-8 30,-9 20,-7 30,-7 30,-6 30,-5 30,-5 30,-4 30,-4 20,-2 30,-2 30,-1 30,-1 h 30 l 30,1 30,2 30,2 30,3 20,4 30,4 30,6 30,5 30,7 30,7 20,8 30,9 30,9 30,10 20,10 30,12 20,12 30,12 30,13 20,14 30,15 20,15 30,15 20,16 20,17 30,18 20,18 20,18 20,19 20,20 30,20 20,20 20,21 10,22 20,22 20,22 20,23 20,24 10,23 20,25 10,24 20,25 10,25 20,26 10,26 10,26 10,26 10,27 10,27 10,28 10,27 10,28 10,28 v 28 l 10,28 10,28 v 29 l 10,29 v 28 29 29 29 29 29 z"
         style="fill:none;stroke:#000000;stroke-width:102.05px"
         id="path213" />
    </g>
    <g
       id="HATCH90"
       serif:id="HATCH"
       transform="matrix(6.6145833e-4,0,0,6.6145833e-4,-1382.5814,206.2533)">
      <path
         d="m 2176090,-213505 v 29 29 29 29 29 29 l -10,28 v 29 28 l -10,29 -10,28 v 28 l -10,28 -10,28 -10,27 -10,28 -10,27 -10,26 -10,27 -10,26 -10,26 -20,26 -10,25 -20,25 -10,24 -20,24 -10,24 -20,24 -20,22 -20,23 -20,22 -20,22 -10,21 -30,20 -20,20 -20,20 -20,19 -20,18 -20,18 -30,18 -20,17 -20,16 -30,15 -20,15 -30,15 -20,14 -30,13 -30,12 -20,12 -30,12 -30,10 -20,10 -30,9 -30,9 -30,8 -20,7 -30,7 -30,5 -30,6 -30,4 -30,4 -20,3 -30,2 -30,2 -30,1 h -30 l -30,-1 -30,-1 -30,-2 -30,-2 -20,-4 -30,-4 -30,-5 -30,-5 -30,-6 -30,-7 -20,-7 -30,-9 -30,-9 -30,-9 -20,-10 -30,-11 -30,-12 -20,-12 -30,-13 -20,-13 -30,-14 -20,-15 -30,-15 -20,-16 -30,-17 -20,-17 -20,-17 -30,-18 -20,-19 -20,-19 -20,-20 -20,-20 -20,-21 -20,-22 -20,-21 -20,-22 -20,-23 -10,-23 -20,-24 -20,-24 -10,-24 -20,-25 -10,-25 -20,-25 -10,-26 -10,-26 -10,-26 -10,-27 -10,-27 -10,-27 -10,-27 -10,-28 -10,-28 -10,-28 v -28 l -10,-28 v -29 l -10,-28 v -29 l -10,-29 v -28 -29 -29 -29 -29 -29 -29 l 10,-28 v -29 -29 l 10,-28 v -29 l 10,-28 10,-28 v -28 l 10,-28 10,-27 10,-27 10,-27 10,-27 10,-27 10,-26 20,-26 10,-25 10,-26 20,-25 10,-24 20,-24 20,-24 10,-23 20,-23 20,-23 20,-22 20,-21 20,-21 20,-21 20,-20 20,-20 20,-19 20,-18 30,-18 20,-17 20,-17 30,-17 20,-15 30,-15 20,-15 30,-13 20,-14 30,-12 20,-12 30,-11 30,-11 30,-10 20,-9 30,-9 30,-8 30,-7 20,-6 30,-6 30,-5 30,-5 30,-3 30,-4 30,-2 20,-1 30,-1 30,-1 30,1 30,1 30,2 30,3 30,3 30,4 20,5 30,5 30,6 30,7 30,8 20,8 30,9 30,9 30,11 20,10 30,12 30,12 20,13 30,13 20,14 30,15 20,15 30,16 20,17 20,17 30,17 20,19 20,18 20,20 20,19 20,21 20,20 20,22 20,21 20,23 20,22 20,23 10,24 20,24 10,24 20,25 10,25 20,25 10,26 10,26 20,26 10,27 10,27 10,27 10,27 10,28 v 28 l 10,28 10,28 v 28 l 10,29 v 28 l 10,29 v 29 29 z"
         style="fill:#1c273a"
         id="path216" />
    </g>
    <g
       id="_2DPOLYLINE74"
       serif:id="2DPOLYLINE"
       transform="matrix(6.6145833e-4,0,0,6.6145833e-4,-1382.5814,206.2533)">
      <path
         d="m 2176090,-213505 v 29 29 29 29 29 29 l -10,28 v 29 28 l -10,29 -10,28 v 28 l -10,28 -10,28 -10,27 -10,28 -10,27 -10,26 -10,27 -10,26 -10,26 -20,26 -10,25 -20,25 -10,24 -20,24 -10,24 -20,24 -20,22 -20,23 -20,22 -20,22 -10,21 -30,20 -20,20 -20,20 -20,19 -20,18 -20,18 -30,18 -20,17 -20,16 -30,15 -20,15 -30,15 -20,14 -30,13 -30,12 -20,12 -30,12 -30,10 -20,10 -30,9 -30,9 -30,8 -20,7 -30,7 -30,5 -30,6 -30,4 -30,4 -20,3 -30,2 -30,2 -30,1 h -30 l -30,-1 -30,-1 -30,-2 -30,-2 -20,-4 -30,-4 -30,-5 -30,-5 -30,-6 -30,-7 -20,-7 -30,-9 -30,-9 -30,-9 -20,-10 -30,-11 -30,-12 -20,-12 -30,-13 -20,-13 -30,-14 -20,-15 -30,-15 -20,-16 -30,-17 -20,-17 -20,-17 -30,-18 -20,-19 -20,-19 -20,-20 -20,-20 -20,-21 -20,-22 -20,-21 -20,-22 -20,-23 -10,-23 -20,-24 -20,-24 -10,-24 -20,-25 -10,-25 -20,-25 -10,-26 -10,-26 -10,-26 -10,-27 -10,-27 -10,-27 -10,-27 -10,-28 -10,-28 -10,-28 v -28 l -10,-28 v -29 l -10,-28 v -29 l -10,-29 v -28 -29 -29 -29 -29 -29 -29 l 10,-28 v -29 -29 l 10,-28 v -29 l 10,-28 10,-28 v -28 l 10,-28 10,-27 10,-27 10,-27 10,-27 10,-27 10,-26 20,-26 10,-25 10,-26 20,-25 10,-24 20,-24 20,-24 10,-23 20,-23 20,-23 20,-22 20,-21 20,-21 20,-21 20,-20 20,-20 20,-19 20,-18 30,-18 20,-17 20,-17 30,-17 20,-15 30,-15 20,-15 30,-13 20,-14 30,-12 20,-12 30,-11 30,-11 30,-10 20,-9 30,-9 30,-8 30,-7 20,-6 30,-6 30,-5 30,-5 30,-3 30,-4 30,-2 20,-1 30,-1 30,-1 30,1 30,1 30,2 30,3 30,3 30,4 20,5 30,5 30,6 30,7 30,8 20,8 30,9 30,9 30,11 20,10 30,12 30,12 20,13 30,13 20,14 30,15 20,15 30,16 20,17 20,17 30,17 20,19 20,18 20,20 20,19 20,21 20,20 20,22 20,21 20,23 20,22 20,23 10,24 20,24 10,24 20,25 10,25 20,25 10,26 10,26 20,26 10,27 10,27 10,27 10,27 10,28 v 28 l 10,28 10,28 v 28 l 10,29 v 28 l 10,29 v 29 29 z"
         style="fill:none;stroke:#000000;stroke-width:102.05px"
         id="path217" />
    </g>
    <g
       id="HATCH91"
       serif:id="HATCH"
       transform="matrix(6.6145833e-4,0,0,6.6145833e-4,-1382.5814,206.2533)">
      <path
         d="m 2179370,-209234 v 29 29 29 29 28 l -10,29 v 29 28 l -10,29 v 28 l -10,29 -10,28 v 28 l -10,27 -10,28 -10,27 -10,27 -10,27 -10,26 -10,27 -20,26 -10,25 -10,25 -20,25 -10,25 -20,24 -20,24 -10,23 -20,23 -20,22 -20,23 -20,21 -20,21 -20,21 -20,20 -20,19 -20,19 -20,19 -30,18 -20,17 -20,17 -30,16 -20,16 -30,15 -20,14 -30,14 -20,13 -30,13 -30,12 -20,11 -30,11 -30,10 -20,9 -30,8 -30,8 -30,8 -20,6 -30,6 -30,5 -30,4 -30,4 -30,3 -30,3 -20,1 -30,1 h -30 -30 l -30,-1 -30,-2 -30,-3 -30,-3 -30,-4 -20,-5 -30,-5 -30,-7 -30,-6 -30,-8 -20,-8 -30,-9 -30,-10 -30,-10 -20,-11 -30,-11 -30,-12 -20,-13 -30,-14 -20,-14 -30,-14 -20,-16 -30,-16 -20,-16 -20,-17 -30,-18 -20,-18 -20,-19 -20,-19 -20,-20 -20,-20 -20,-21 -20,-21 -20,-22 -20,-22 -20,-23 -20,-23 -10,-23 -20,-24 -10,-24 -20,-25 -10,-25 -20,-26 -10,-25 -10,-26 -20,-27 -10,-26 -10,-27 -10,-27 -10,-28 -10,-27 v -28 l -10,-28 -10,-28 v -29 l -10,-28 v -29 l -10,-28 v -29 -29 -29 -29 -28 -29 -29 -29 -29 l 10,-29 v -28 -29 l 10,-28 10,-28 v -28 l 10,-28 10,-28 10,-28 10,-27 10,-27 10,-27 10,-26 10,-26 10,-26 20,-26 10,-25 20,-25 10,-25 20,-24 10,-23 20,-24 20,-23 20,-22 20,-22 10,-22 20,-21 20,-20 30,-21 20,-19 20,-19 20,-19 20,-18 30,-17 20,-17 20,-16 30,-16 20,-15 30,-14 20,-14 30,-13 30,-13 20,-12 30,-11 30,-10 20,-10 30,-10 30,-8 30,-8 20,-7 30,-7 30,-6 30,-5 30,-4 30,-4 20,-3 30,-2 30,-2 30,-1 h 30 30 l 30,2 30,2 20,2 30,4 30,4 30,4 30,6 30,6 30,7 20,7 30,8 30,9 30,10 20,10 30,11 30,11 20,13 30,12 20,14 30,14 20,15 30,15 20,16 30,16 20,17 20,18 30,18 20,19 20,19 20,20 20,20 20,21 20,21 20,22 20,22 20,23 10,23 20,24 20,23 10,25 20,24 10,25 10,26 20,26 10,26 10,26 10,27 10,26 10,28 10,27 10,28 10,27 10,28 v 29 l 10,28 v 28 l 10,29 v 29 l 10,28 v 29 z"
         style="fill:#1c273a"
         id="path218" />
    </g>
    <g
       id="_2DPOLYLINE75"
       serif:id="2DPOLYLINE"
       transform="matrix(6.6145833e-4,0,0,6.6145833e-4,-1382.5814,206.2533)">
      <path
         d="m 2179370,-209234 v 29 29 29 29 28 l -10,29 v 29 28 l -10,29 v 28 l -10,29 -10,28 v 28 l -10,27 -10,28 -10,27 -10,27 -10,27 -10,26 -10,27 -20,26 -10,25 -10,25 -20,25 -10,25 -20,24 -20,24 -10,23 -20,23 -20,22 -20,23 -20,21 -20,21 -20,21 -20,20 -20,19 -20,19 -20,19 -30,18 -20,17 -20,17 -30,16 -20,16 -30,15 -20,14 -30,14 -20,13 -30,13 -30,12 -20,11 -30,11 -30,10 -20,9 -30,8 -30,8 -30,8 -20,6 -30,6 -30,5 -30,4 -30,4 -30,3 -30,3 -20,1 -30,1 h -30 -30 l -30,-1 -30,-2 -30,-3 -30,-3 -30,-4 -20,-5 -30,-5 -30,-7 -30,-6 -30,-8 -20,-8 -30,-9 -30,-10 -30,-10 -20,-11 -30,-11 -30,-12 -20,-13 -30,-14 -20,-14 -30,-14 -20,-16 -30,-16 -20,-16 -20,-17 -30,-18 -20,-18 -20,-19 -20,-19 -20,-20 -20,-20 -20,-21 -20,-21 -20,-22 -20,-22 -20,-23 -20,-23 -10,-23 -20,-24 -10,-24 -20,-25 -10,-25 -20,-26 -10,-25 -10,-26 -20,-27 -10,-26 -10,-27 -10,-27 -10,-28 -10,-27 v -28 l -10,-28 -10,-28 v -29 l -10,-28 v -29 l -10,-28 v -29 -29 -29 -29 -28 -29 -29 -29 -29 l 10,-29 v -28 -29 l 10,-28 10,-28 v -28 l 10,-28 10,-28 10,-28 10,-27 10,-27 10,-27 10,-26 10,-26 10,-26 20,-26 10,-25 20,-25 10,-25 20,-24 10,-23 20,-24 20,-23 20,-22 20,-22 10,-22 20,-21 20,-20 30,-21 20,-19 20,-19 20,-19 20,-18 30,-17 20,-17 20,-16 30,-16 20,-15 30,-14 20,-14 30,-13 30,-13 20,-12 30,-11 30,-10 20,-10 30,-10 30,-8 30,-8 20,-7 30,-7 30,-6 30,-5 30,-4 30,-4 20,-3 30,-2 30,-2 30,-1 h 30 30 l 30,2 30,2 20,2 30,4 30,4 30,4 30,6 30,6 30,7 20,7 30,8 30,9 30,10 20,10 30,11 30,11 20,13 30,12 20,14 30,14 20,15 30,15 20,16 30,16 20,17 20,18 30,18 20,19 20,19 20,20 20,20 20,21 20,21 20,22 20,22 20,23 10,23 20,24 20,23 10,25 20,24 10,25 10,26 20,26 10,26 10,26 10,27 10,26 10,28 10,27 10,28 10,27 10,28 v 29 l 10,28 v 28 l 10,29 v 29 l 10,28 v 29 z"
         style="fill:none;stroke:#000000;stroke-width:102.05px"
         id="path219" />
    </g>
    <g
       id="HATCH92"
       serif:id="HATCH"
       transform="matrix(6.6145833e-4,0,0,6.6145833e-4,-1382.5814,206.2533)">
      <path
         d="m 2183640,-205957 v 29 29 29 28 29 29 l -10,29 v 28 l -10,29 v 28 l -10,29 -10,28 v 28 l -10,27 -10,28 -10,27 -10,27 -10,27 -10,26 -10,27 -20,25 -10,26 -10,25 -20,25 -10,25 -20,24 -20,24 -10,23 -20,23 -20,22 -20,22 -20,22 -20,21 -20,21 -20,20 -20,19 -20,19 -20,19 -30,18 -20,17 -20,17 -30,16 -20,16 -30,15 -20,14 -30,14 -20,13 -30,13 -20,12 -30,11 -30,11 -30,9 -20,10 -30,8 -30,8 -30,7 -20,7 -30,6 -30,5 -30,4 -30,4 -30,3 -30,2 -20,2 -30,1 h -30 -30 l -30,-1 -30,-2 -30,-3 -30,-3 -20,-4 -30,-5 -30,-6 -30,-6 -30,-7 -30,-7 -20,-8 -30,-9 -30,-10 -30,-10 -20,-11 -30,-11 -30,-12 -20,-13 -30,-14 -20,-14 -30,-14 -20,-16 -30,-16 -20,-16 -20,-17 -30,-18 -20,-18 -20,-19 -20,-19 -20,-20 -20,-20 -20,-21 -20,-21 -20,-22 -20,-22 -20,-23 -20,-23 -10,-23 -20,-24 -10,-25 -20,-24 -10,-25 -20,-26 -10,-25 -10,-26 -20,-27 -10,-26 -10,-27 -10,-27 -10,-28 v -27 l -10,-28 -10,-28 -10,-28 v -29 l -10,-28 v -29 l -10,-28 v -29 -29 -29 -29 -29 -28 -29 -29 -29 l 10,-29 v -28 -29 l 10,-28 10,-28 v -29 l 10,-27 10,-28 10,-28 10,-27 10,-27 10,-27 10,-26 10,-27 10,-25 20,-26 10,-25 20,-25 10,-25 20,-24 10,-24 20,-23 20,-23 20,-22 20,-22 20,-22 20,-21 20,-21 20,-20 20,-19 20,-19 20,-19 20,-18 30,-17 20,-17 20,-16 30,-16 20,-15 30,-14 20,-14 30,-13 30,-13 20,-12 30,-11 30,-10 20,-10 30,-10 30,-8 30,-8 20,-7 30,-7 30,-6 30,-5 30,-4 30,-4 20,-3 30,-2 30,-2 30,-1 h 30 30 l 30,2 30,1 30,3 20,3 30,4 30,5 30,6 30,6 30,7 20,7 30,8 30,9 30,10 20,10 30,11 30,11 20,13 30,12 20,14 30,14 20,15 30,15 20,16 30,16 20,17 20,18 30,18 20,19 20,19 20,20 20,20 20,21 20,21 20,22 20,22 20,23 10,23 20,23 20,24 10,25 20,24 10,25 20,26 10,25 10,27 10,26 10,26 10,27 10,28 10,27 10,28 10,27 10,28 v 28 l 10,29 10,28 v 29 28 l 10,29 v 29 z"
         style="fill:#1c273a"
         id="path220" />
    </g>
    <g
       id="_2DPOLYLINE76"
       serif:id="2DPOLYLINE"
       transform="matrix(6.6145833e-4,0,0,6.6145833e-4,-1382.5814,206.2533)">
      <path
         d="m 2183640,-205957 v 29 29 29 28 29 29 l -10,29 v 28 l -10,29 v 28 l -10,29 -10,28 v 28 l -10,27 -10,28 -10,27 -10,27 -10,27 -10,26 -10,27 -20,25 -10,26 -10,25 -20,25 -10,25 -20,24 -20,24 -10,23 -20,23 -20,22 -20,22 -20,22 -20,21 -20,21 -20,20 -20,19 -20,19 -20,19 -30,18 -20,17 -20,17 -30,16 -20,16 -30,15 -20,14 -30,14 -20,13 -30,13 -20,12 -30,11 -30,11 -30,9 -20,10 -30,8 -30,8 -30,7 -20,7 -30,6 -30,5 -30,4 -30,4 -30,3 -30,2 -20,2 -30,1 h -30 -30 l -30,-1 -30,-2 -30,-3 -30,-3 -20,-4 -30,-5 -30,-6 -30,-6 -30,-7 -30,-7 -20,-8 -30,-9 -30,-10 -30,-10 -20,-11 -30,-11 -30,-12 -20,-13 -30,-14 -20,-14 -30,-14 -20,-16 -30,-16 -20,-16 -20,-17 -30,-18 -20,-18 -20,-19 -20,-19 -20,-20 -20,-20 -20,-21 -20,-21 -20,-22 -20,-22 -20,-23 -20,-23 -10,-23 -20,-24 -10,-25 -20,-24 -10,-25 -20,-26 -10,-25 -10,-26 -20,-27 -10,-26 -10,-27 -10,-27 -10,-28 v -27 l -10,-28 -10,-28 -10,-28 v -29 l -10,-28 v -29 l -10,-28 v -29 -29 -29 -29 -29 -28 -29 -29 -29 l 10,-29 v -28 -29 l 10,-28 10,-28 v -29 l 10,-27 10,-28 10,-28 10,-27 10,-27 10,-27 10,-26 10,-27 10,-25 20,-26 10,-25 20,-25 10,-25 20,-24 10,-24 20,-23 20,-23 20,-22 20,-22 20,-22 20,-21 20,-21 20,-20 20,-19 20,-19 20,-19 20,-18 30,-17 20,-17 20,-16 30,-16 20,-15 30,-14 20,-14 30,-13 30,-13 20,-12 30,-11 30,-10 20,-10 30,-10 30,-8 30,-8 20,-7 30,-7 30,-6 30,-5 30,-4 30,-4 20,-3 30,-2 30,-2 30,-1 h 30 30 l 30,2 30,1 30,3 20,3 30,4 30,5 30,6 30,6 30,7 20,7 30,8 30,9 30,10 20,10 30,11 30,11 20,13 30,12 20,14 30,14 20,15 30,15 20,16 30,16 20,17 20,18 30,18 20,19 20,19 20,20 20,20 20,21 20,21 20,22 20,22 20,23 10,23 20,23 20,24 10,25 20,24 10,25 20,26 10,25 10,27 10,26 10,26 10,27 10,28 10,27 10,28 10,27 10,28 v 28 l 10,29 10,28 v 29 28 l 10,29 v 29 z"
         style="fill:none;stroke:#000000;stroke-width:102.05px"
         id="path221" />
    </g>
    <g
       id="HATCH93"
       serif:id="HATCH"
       transform="matrix(6.6145833e-4,0,0,6.6145833e-4,-1382.5814,206.2533)">
      <path
         d="m 2188610,-203897 v 29 29 28 29 29 29 29 l -10,28 v 29 l -10,28 -10,28 v 29 l -10,27 -10,28 -10,28 -10,27 -10,27 -10,27 -10,26 -10,27 -10,25 -20,26 -10,25 -20,25 -10,25 -20,24 -10,24 -20,23 -20,23 -20,22 -20,22 -10,22 -20,21 -20,21 -30,20 -20,19 -20,19 -20,19 -20,18 -30,17 -20,17 -20,16 -30,16 -20,15 -30,14 -20,14 -30,13 -30,13 -20,12 -30,11 -20,10 -30,10 -30,10 -30,8 -20,8 -30,7 -30,7 -30,6 -30,5 -30,4 -20,4 -30,3 -30,2 -30,2 -30,1 h -30 -30 l -30,-2 -30,-1 -20,-3 -30,-3 -30,-4 -30,-5 -30,-6 -30,-6 -30,-7 -20,-7 -30,-8 -30,-9 -30,-10 -20,-10 -30,-11 -30,-11 -20,-13 -30,-12 -20,-14 -30,-14 -20,-15 -30,-15 -20,-16 -30,-16 -20,-17 -20,-18 -20,-18 -30,-19 -20,-19 -20,-20 -20,-20 -20,-21 -20,-21 -20,-22 -20,-22 -20,-23 -10,-23 -20,-23 -20,-24 -10,-25 -20,-24 -10,-25 -10,-26 -20,-25 -10,-27 -10,-26 -10,-26 -10,-27 -10,-28 -10,-27 -10,-28 -10,-27 -10,-28 v -28 l -10,-29 v -28 l -10,-29 v -28 l -10,-29 v -29 -29 -29 -29 -29 -28 -29 l 10,-29 v -29 -28 l 10,-29 v -28 l 10,-29 10,-28 v -28 l 10,-27 10,-28 10,-27 10,-27 10,-27 10,-26 10,-27 20,-26 10,-25 20,-25 10,-25 20,-25 10,-24 20,-24 10,-23 20,-23 20,-22 20,-22 20,-22 20,-21 20,-21 20,-20 20,-19 20,-19 20,-19 30,-18 20,-17 20,-17 30,-16 20,-16 30,-15 20,-14 30,-14 20,-13 30,-13 30,-12 20,-11 30,-11 30,-9 20,-10 30,-8 30,-8 30,-7 20,-7 30,-6 30,-5 30,-4 30,-4 30,-3 30,-2 30,-2 20,-1 h 30 30 l 30,1 30,2 30,3 30,3 30,4 20,5 30,6 30,6 30,7 30,7 20,8 30,9 30,10 30,10 20,11 30,11 30,12 20,13 30,14 20,14 30,14 20,16 30,16 20,16 20,17 30,18 20,18 20,19 20,19 20,20 20,20 20,21 20,21 20,22 20,22 20,23 20,23 10,23 20,24 20,25 10,24 10,25 20,26 10,25 10,26 20,27 10,26 10,27 10,27 10,28 10,27 v 28 l 10,28 10,28 v 29 l 10,28 v 29 l 10,28 v 29 29 z"
         style="fill:#1c273a"
         id="path222" />
    </g>
    <g
       id="_2DPOLYLINE77"
       serif:id="2DPOLYLINE"
       transform="matrix(6.6145833e-4,0,0,6.6145833e-4,-1382.5814,206.2533)">
      <path
         d="m 2188610,-203897 v 29 29 28 29 29 29 29 l -10,28 v 29 l -10,28 -10,28 v 29 l -10,27 -10,28 -10,28 -10,27 -10,27 -10,27 -10,26 -10,27 -10,25 -20,26 -10,25 -20,25 -10,25 -20,24 -10,24 -20,23 -20,23 -20,22 -20,22 -10,22 -20,21 -20,21 -30,20 -20,19 -20,19 -20,19 -20,18 -30,17 -20,17 -20,16 -30,16 -20,15 -30,14 -20,14 -30,13 -30,13 -20,12 -30,11 -20,10 -30,10 -30,10 -30,8 -20,8 -30,7 -30,7 -30,6 -30,5 -30,4 -20,4 -30,3 -30,2 -30,2 -30,1 h -30 -30 l -30,-2 -30,-1 -20,-3 -30,-3 -30,-4 -30,-5 -30,-6 -30,-6 -30,-7 -20,-7 -30,-8 -30,-9 -30,-10 -20,-10 -30,-11 -30,-11 -20,-13 -30,-12 -20,-14 -30,-14 -20,-15 -30,-15 -20,-16 -30,-16 -20,-17 -20,-18 -20,-18 -30,-19 -20,-19 -20,-20 -20,-20 -20,-21 -20,-21 -20,-22 -20,-22 -20,-23 -10,-23 -20,-23 -20,-24 -10,-25 -20,-24 -10,-25 -10,-26 -20,-25 -10,-27 -10,-26 -10,-26 -10,-27 -10,-28 -10,-27 -10,-28 -10,-27 -10,-28 v -28 l -10,-29 v -28 l -10,-29 v -28 l -10,-29 v -29 -29 -29 -29 -29 -28 -29 l 10,-29 v -29 -28 l 10,-29 v -28 l 10,-29 10,-28 v -28 l 10,-27 10,-28 10,-27 10,-27 10,-27 10,-26 10,-27 20,-26 10,-25 20,-25 10,-25 20,-25 10,-24 20,-24 10,-23 20,-23 20,-22 20,-22 20,-22 20,-21 20,-21 20,-20 20,-19 20,-19 20,-19 30,-18 20,-17 20,-17 30,-16 20,-16 30,-15 20,-14 30,-14 20,-13 30,-13 30,-12 20,-11 30,-11 30,-9 20,-10 30,-8 30,-8 30,-7 20,-7 30,-6 30,-5 30,-4 30,-4 30,-3 30,-2 30,-2 20,-1 h 30 30 l 30,1 30,2 30,3 30,3 30,4 20,5 30,6 30,6 30,7 30,7 20,8 30,9 30,10 30,10 20,11 30,11 30,12 20,13 30,14 20,14 30,14 20,16 30,16 20,16 20,17 30,18 20,18 20,19 20,19 20,20 20,20 20,21 20,21 20,22 20,22 20,23 20,23 10,23 20,24 20,25 10,24 10,25 20,26 10,25 10,26 20,27 10,26 10,27 10,27 10,28 10,27 v 28 l 10,28 10,28 v 29 l 10,28 v 29 l 10,28 v 29 29 z"
         style="fill:none;stroke:#000000;stroke-width:102.05px"
         id="path223" />
    </g>
    <g
       id="g20393"
       transform="translate(-304.49278,-428.13169)">
      <g
         id="HATCH83"
         serif:id="HATCH"
         transform="matrix(6.6145833e-4,0,0,6.6145833e-4,-1078.0886,634.44808)">
        <path
           d="m 2173660,-223678 -10,37 v 37 36 l -10,37 -10,36 v 37 l -10,36 -10,36 -10,35 -10,36 -10,35 -10,35 -20,34 -10,34 -20,34 -10,34 -20,33 -10,32 -20,33 -20,31 -20,32 -20,30 -20,31 -20,30 -30,29 -20,28 -20,28 -30,28 -20,27 -30,26 -30,26 -20,25 -30,24 -30,23 -30,23 -30,22 -30,22 -30,21 -30,19 -30,20 -30,18 -40,17 -30,17 -30,16 -40,15 -30,15 -40,13 -30,13 -30,11 -40,11 -40,10 -30,10 -40,8 -30,7 -40,7 -40,5 -30,5 -40,4 -40,3 -30,2 -40,1 h -40 l -30,-1 -40,-1 -40,-3 -30,-3 -40,-5 -40,-5 -30,-6 -40,-7 -40,-8 -30,-9 -40,-10 -30,-10 -40,-12 -30,-12 -40,-13 -30,-14 -40,-15 -30,-15 -30,-17 -40,-17 -30,-18 -30,-19 -30,-20 -30,-20 -30,-21 -30,-22 -30,-23 -30,-23 -30,-24 -20,-24 -30,-26 -30,-26 -20,-26 -30,-28 -20,-27 -30,-29 -20,-29 -20,-29 -20,-31 -20,-30 -20,-31 -20,-32 -20,-32 -20,-32 -20,-33 -10,-34 -20,-33 -10,-34 -10,-35 -20,-34 -10,-35 -10,-36 -10,-35 -10,-36 -10,-36 v -36 l -10,-37 -10,-36 v -37 -37 l -10,-36 v -37 -37 -37 -37 -37 -37 l 10,-37 v -36 l 10,-37 v -36 l 10,-36 10,-36 10,-36 10,-36 10,-35 10,-36 10,-34 10,-35 20,-34 10,-34 20,-33 10,-33 20,-33 20,-32 20,-32 20,-31 20,-31 20,-30 20,-30 20,-29 30,-29 20,-28 30,-28 20,-27 30,-26 20,-25 30,-25 30,-25 30,-23 30,-23 30,-22 30,-22 30,-20 30,-20 30,-19 30,-19 30,-17 40,-17 30,-16 30,-15 40,-14 30,-14 40,-12 30,-12 40,-11 30,-10 40,-9 40,-8 30,-8 40,-6 30,-6 40,-5 40,-3 30,-3 40,-2 40,-1 40,-1 30,1 40,2 40,2 30,4 40,4 40,5 30,6 40,8 30,7 40,9 40,10 30,10 40,12 30,12 40,13 30,14 30,15 40,16 30,16 30,17 40,18 30,19 30,20 30,20 30,21 30,22 30,23 30,23 30,24 20,25 30,25 30,26 20,27 30,27 20,28 20,28 30,29 20,30 20,30 20,30 20,32 20,31 20,32 20,33 10,33 20,33 10,34 20,34 10,34 10,35 20,35 10,35 10,36 10,35 v 36 l 10,37 10,36 v 36 l 10,37 v 37 l 10,37 v 37 36 37 37 z"
           style="fill:#1c273a"
           id="path202" />
      </g>
      <g
         id="_2DPOLYLINE67"
         serif:id="2DPOLYLINE"
         transform="matrix(6.6145833e-4,0,0,6.6145833e-4,-1078.0886,634.44808)">
        <path
           d="m 2173660,-223678 -10,37 v 37 36 l -10,37 -10,36 v 37 l -10,36 -10,36 -10,35 -10,36 -10,35 -10,35 -20,34 -10,34 -20,34 -10,34 -20,33 -10,32 -20,33 -20,31 -20,32 -20,30 -20,31 -20,30 -30,29 -20,28 -20,28 -30,28 -20,27 -30,26 -30,26 -20,25 -30,24 -30,23 -30,23 -30,22 -30,22 -30,21 -30,19 -30,20 -30,18 -40,17 -30,17 -30,16 -40,15 -30,15 -40,13 -30,13 -30,11 -40,11 -40,10 -30,10 -40,8 -30,7 -40,7 -40,5 -30,5 -40,4 -40,3 -30,2 -40,1 h -40 l -30,-1 -40,-1 -40,-3 -30,-3 -40,-5 -40,-5 -30,-6 -40,-7 -40,-8 -30,-9 -40,-10 -30,-10 -40,-12 -30,-12 -40,-13 -30,-14 -40,-15 -30,-15 -30,-17 -40,-17 -30,-18 -30,-19 -30,-20 -30,-20 -30,-21 -30,-22 -30,-23 -30,-23 -30,-24 -20,-24 -30,-26 -30,-26 -20,-26 -30,-28 -20,-27 -30,-29 -20,-29 -20,-29 -20,-31 -20,-30 -20,-31 -20,-32 -20,-32 -20,-32 -20,-33 -10,-34 -20,-33 -10,-34 -10,-35 -20,-34 -10,-35 -10,-36 -10,-35 -10,-36 -10,-36 v -36 l -10,-37 -10,-36 v -37 -37 l -10,-36 v -37 -37 -37 -37 -37 -37 l 10,-37 v -36 l 10,-37 v -36 l 10,-36 10,-36 10,-36 10,-36 10,-35 10,-36 10,-34 10,-35 20,-34 10,-34 20,-33 10,-33 20,-33 20,-32 20,-32 20,-31 20,-31 20,-30 20,-30 20,-29 30,-29 20,-28 30,-28 20,-27 30,-26 20,-25 30,-25 30,-25 30,-23 30,-23 30,-22 30,-22 30,-20 30,-20 30,-19 30,-19 30,-17 40,-17 30,-16 30,-15 40,-14 30,-14 40,-12 30,-12 40,-11 30,-10 40,-9 40,-8 30,-8 40,-6 30,-6 40,-5 40,-3 30,-3 40,-2 40,-1 40,-1 30,1 40,2 40,2 30,4 40,4 40,5 30,6 40,8 30,7 40,9 40,10 30,10 40,12 30,12 40,13 30,14 30,15 40,16 30,16 30,17 40,18 30,19 30,20 30,20 30,21 30,22 30,23 30,23 30,24 20,25 30,25 30,26 20,27 30,27 20,28 20,28 30,29 20,30 20,30 20,30 20,32 20,31 20,32 20,33 10,33 20,33 10,34 20,34 10,34 10,35 20,35 10,35 10,36 10,35 v 36 l 10,37 10,36 v 36 l 10,37 v 37 l 10,37 v 37 36 37 37 z"
           style="fill:none;stroke:#000000;stroke-width:102.05px"
           id="path203" />
      </g>
    </g>
    <g
       id="HATCH84"
       serif:id="HATCH"
       transform="matrix(6.6145833e-4,0,0,6.6145833e-4,-1382.5814,206.2533)">
      <path
         d="m 2174030,-229048 v 29 29 28 l -10,29 v 29 l -10,28 v 28 l -10,29 -10,28 v 27 l -10,28 -10,27 -10,27 -10,27 -10,27 -20,26 -10,26 -10,26 -20,25 -10,26 -20,24 -10,25 -20,23 -10,24 -20,23 -20,23 -20,22 -20,22 -20,21 -20,21 -20,20 -20,20 -20,19 -20,19 -20,18 -30,18 -20,17 -20,16 -30,16 -20,15 -30,15 -20,14 -30,14 -20,12 -30,13 -30,11 -20,11 -30,10 -30,10 -30,9 -20,8 -30,7 -30,7 -30,6 -30,6 -20,4 -30,4 -30,4 -30,2 -30,2 -30,2 h -30 -30 l -30,-1 -20,-2 -30,-2 -30,-3 -30,-4 -30,-4 -30,-5 -30,-6 -20,-7 -30,-7 -30,-8 -30,-8 -20,-10 -30,-10 -30,-10 -30,-12 -20,-11 -30,-13 -20,-13 -30,-14 -20,-14 -30,-15 -20,-16 -30,-16 -20,-17 -20,-17 -30,-18 -20,-19 -20,-19 -20,-20 -20,-20 -20,-20 -20,-21 -20,-22 -20,-22 -20,-22 -20,-23 -10,-24 -20,-23 -20,-24 -10,-25 -20,-25 -10,-25 -10,-26 -20,-26 -10,-26 -10,-26 -10,-27 -10,-27 -10,-27 -10,-28 -10,-28 v -28 l -10,-28 -10,-28 v -28 l -10,-29 v -28 -29 l -10,-29 v -29 -29 -29 -28 -29 -29 -29 l 10,-29 v -28 l 10,-29 v -28 l 10,-29 v -28 l 10,-28 10,-28 10,-27 10,-28 10,-27 10,-27 10,-26 10,-27 10,-26 10,-25 20,-26 10,-25 20,-25 10,-24 20,-24 20,-23 10,-23 20,-23 20,-22 20,-22 20,-21 20,-21 20,-20 20,-20 20,-19 20,-19 30,-18 20,-18 20,-17 30,-17 20,-15 30,-16 20,-14 30,-14 20,-14 30,-13 20,-12 30,-11 30,-11 20,-10 30,-10 30,-9 30,-8 20,-8 30,-6 30,-7 30,-5 30,-5 30,-4 20,-3 30,-3 30,-2 30,-1 h 30 30 l 30,1 30,1 30,3 20,3 30,3 30,5 30,5 30,6 30,6 20,8 30,8 30,8 30,9 20,10 30,11 30,11 20,12 30,13 30,13 20,14 30,14 20,15 30,16 20,16 20,17 30,17 20,18 20,19 20,19 20,19 20,20 30,21 20,21 10,21 20,22 20,23 20,23 20,23 10,24 20,24 10,25 20,25 10,25 20,25 10,26 10,26 10,27 10,27 10,27 10,27 10,28 10,27 10,28 v 28 l 10,29 10,28 v 28 29 l 10,29 v 29 28 29 29 29 z"
         style="fill:#1c273a"
         id="path204" />
    </g>
    <g
       id="_2DPOLYLINE68"
       serif:id="2DPOLYLINE"
       transform="matrix(6.6145833e-4,0,0,6.6145833e-4,-1382.5814,206.2533)">
      <path
         d="m 2174030,-229048 v 29 29 28 l -10,29 v 29 l -10,28 v 28 l -10,29 -10,28 v 27 l -10,28 -10,27 -10,27 -10,27 -10,27 -20,26 -10,26 -10,26 -20,25 -10,26 -20,24 -10,25 -20,23 -10,24 -20,23 -20,23 -20,22 -20,22 -20,21 -20,21 -20,20 -20,20 -20,19 -20,19 -20,18 -30,18 -20,17 -20,16 -30,16 -20,15 -30,15 -20,14 -30,14 -20,12 -30,13 -30,11 -20,11 -30,10 -30,10 -30,9 -20,8 -30,7 -30,7 -30,6 -30,6 -20,4 -30,4 -30,4 -30,2 -30,2 -30,2 h -30 -30 l -30,-1 -20,-2 -30,-2 -30,-3 -30,-4 -30,-4 -30,-5 -30,-6 -20,-7 -30,-7 -30,-8 -30,-8 -20,-10 -30,-10 -30,-10 -30,-12 -20,-11 -30,-13 -20,-13 -30,-14 -20,-14 -30,-15 -20,-16 -30,-16 -20,-17 -20,-17 -30,-18 -20,-19 -20,-19 -20,-20 -20,-20 -20,-20 -20,-21 -20,-22 -20,-22 -20,-22 -20,-23 -10,-24 -20,-23 -20,-24 -10,-25 -20,-25 -10,-25 -10,-26 -20,-26 -10,-26 -10,-26 -10,-27 -10,-27 -10,-27 -10,-28 -10,-28 v -28 l -10,-28 -10,-28 v -28 l -10,-29 v -28 -29 l -10,-29 v -29 -29 -29 -28 -29 -29 -29 l 10,-29 v -28 l 10,-29 v -28 l 10,-29 v -28 l 10,-28 10,-28 10,-27 10,-28 10,-27 10,-27 10,-26 10,-27 10,-26 10,-25 20,-26 10,-25 20,-25 10,-24 20,-24 20,-23 10,-23 20,-23 20,-22 20,-22 20,-21 20,-21 20,-20 20,-20 20,-19 20,-19 30,-18 20,-18 20,-17 30,-17 20,-15 30,-16 20,-14 30,-14 20,-14 30,-13 20,-12 30,-11 30,-11 20,-10 30,-10 30,-9 30,-8 20,-8 30,-6 30,-7 30,-5 30,-5 30,-4 20,-3 30,-3 30,-2 30,-1 h 30 30 l 30,1 30,1 30,3 20,3 30,3 30,5 30,5 30,6 30,6 20,8 30,8 30,8 30,9 20,10 30,11 30,11 20,12 30,13 30,13 20,14 30,14 20,15 30,16 20,16 20,17 30,17 20,18 20,19 20,19 20,19 20,20 30,21 20,21 10,21 20,22 20,23 20,23 20,23 10,24 20,24 10,25 20,25 10,25 20,25 10,26 10,26 10,27 10,27 10,27 10,27 10,28 10,27 10,28 v 28 l 10,29 10,28 v 28 29 l 10,29 v 29 28 29 29 29 z"
         style="fill:none;stroke:#000000;stroke-width:102.05px"
         id="path205" />
    </g>
    <g
       id="HATCH89"
       serif:id="HATCH"
       transform="matrix(6.6145833e-4,0,0,6.6145833e-4,-1382.5814,206.2533)">
      <path
         d="m 2174030,-218478 v 29 29 29 29 29 28 l -10,29 v 29 28 l -10,29 -10,28 v 28 l -10,28 -10,28 -10,27 -10,27 -10,28 -10,26 -10,27 -10,26 -10,26 -20,26 -10,25 -20,25 -10,24 -20,24 -10,24 -20,23 -20,23 -20,23 -20,22 -10,21 -20,21 -30,21 -20,20 -20,20 -20,19 -20,18 -20,18 -30,18 -20,16 -20,17 -30,15 -20,15 -30,15 -20,14 -30,13 -30,12 -20,12 -30,11 -30,11 -20,10 -30,9 -30,9 -30,8 -20,7 -30,6 -30,6 -30,5 -30,5 -30,4 -20,3 -30,2 -30,2 h -30 l -30,1 -30,-1 -30,-1 -30,-2 -30,-3 -20,-3 -30,-4 -30,-5 -30,-5 -30,-6 -30,-7 -20,-8 -30,-8 -30,-9 -30,-9 -20,-10 -30,-11 -30,-12 -20,-12 -30,-13 -20,-13 -30,-14 -20,-15 -30,-15 -20,-16 -30,-17 -20,-17 -20,-17 -30,-19 -20,-18 -20,-20 -20,-19 -20,-21 -20,-20 -20,-22 -20,-21 -20,-23 -20,-22 -10,-23 -20,-24 -20,-24 -10,-24 -20,-25 -10,-25 -20,-25 -10,-26 -10,-26 -10,-26 -10,-27 -10,-27 -10,-27 -10,-27 -10,-28 -10,-28 -10,-28 v -28 l -10,-28 v -29 l -10,-28 v -29 l -10,-29 v -28 -29 -29 -29 -29 -29 -29 l 10,-29 v -28 -29 l 10,-28 v -29 l 10,-28 10,-28 v -28 l 10,-28 10,-27 10,-28 10,-27 10,-26 10,-27 10,-26 20,-26 10,-26 10,-25 20,-25 10,-24 20,-24 20,-24 10,-23 20,-23 20,-23 20,-22 20,-21 20,-22 20,-20 20,-20 20,-20 20,-19 20,-18 30,-18 20,-18 20,-16 30,-17 20,-15 30,-15 20,-15 30,-14 20,-13 30,-12 20,-12 30,-11 30,-11 30,-10 20,-9 30,-9 30,-8 30,-7 20,-6 30,-6 30,-5 30,-5 30,-4 30,-3 30,-2 20,-2 30,-1 h 30 l 30,1 30,1 30,2 30,3 30,3 30,4 20,5 30,5 30,6 30,7 30,8 20,8 30,9 30,9 30,10 20,11 30,12 30,12 20,13 30,13 20,14 30,15 20,15 30,16 20,17 20,17 30,17 20,18 20,19 20,19 20,20 20,21 20,20 20,22 20,21 20,23 20,22 20,23 10,24 20,24 10,24 20,25 10,25 20,25 10,26 10,26 20,26 10,27 10,27 10,27 10,27 10,28 v 28 l 10,28 10,28 v 28 l 10,29 v 28 l 10,29 v 29 28 z"
         style="fill:#1c273a"
         id="path214" />
    </g>
    <g
       id="_2DPOLYLINE73"
       serif:id="2DPOLYLINE"
       transform="matrix(6.6145833e-4,0,0,6.6145833e-4,-1382.5814,206.2533)">
      <path
         d="m 2174030,-218478 v 29 29 29 29 29 28 l -10,29 v 29 28 l -10,29 -10,28 v 28 l -10,28 -10,28 -10,27 -10,27 -10,28 -10,26 -10,27 -10,26 -10,26 -20,26 -10,25 -20,25 -10,24 -20,24 -10,24 -20,23 -20,23 -20,23 -20,22 -10,21 -20,21 -30,21 -20,20 -20,20 -20,19 -20,18 -20,18 -30,18 -20,16 -20,17 -30,15 -20,15 -30,15 -20,14 -30,13 -30,12 -20,12 -30,11 -30,11 -20,10 -30,9 -30,9 -30,8 -20,7 -30,6 -30,6 -30,5 -30,5 -30,4 -20,3 -30,2 -30,2 h -30 l -30,1 -30,-1 -30,-1 -30,-2 -30,-3 -20,-3 -30,-4 -30,-5 -30,-5 -30,-6 -30,-7 -20,-8 -30,-8 -30,-9 -30,-9 -20,-10 -30,-11 -30,-12 -20,-12 -30,-13 -20,-13 -30,-14 -20,-15 -30,-15 -20,-16 -30,-17 -20,-17 -20,-17 -30,-19 -20,-18 -20,-20 -20,-19 -20,-21 -20,-20 -20,-22 -20,-21 -20,-23 -20,-22 -10,-23 -20,-24 -20,-24 -10,-24 -20,-25 -10,-25 -20,-25 -10,-26 -10,-26 -10,-26 -10,-27 -10,-27 -10,-27 -10,-27 -10,-28 -10,-28 -10,-28 v -28 l -10,-28 v -29 l -10,-28 v -29 l -10,-29 v -28 -29 -29 -29 -29 -29 -29 l 10,-29 v -28 -29 l 10,-28 v -29 l 10,-28 10,-28 v -28 l 10,-28 10,-27 10,-28 10,-27 10,-26 10,-27 10,-26 20,-26 10,-26 10,-25 20,-25 10,-24 20,-24 20,-24 10,-23 20,-23 20,-23 20,-22 20,-21 20,-22 20,-20 20,-20 20,-20 20,-19 20,-18 30,-18 20,-18 20,-16 30,-17 20,-15 30,-15 20,-15 30,-14 20,-13 30,-12 20,-12 30,-11 30,-11 30,-10 20,-9 30,-9 30,-8 30,-7 20,-6 30,-6 30,-5 30,-5 30,-4 30,-3 30,-2 20,-2 30,-1 h 30 l 30,1 30,1 30,2 30,3 30,3 30,4 20,5 30,5 30,6 30,7 30,8 20,8 30,9 30,9 30,10 20,11 30,12 30,12 20,13 30,13 20,14 30,15 20,15 30,16 20,17 20,17 30,17 20,18 20,19 20,19 20,20 20,21 20,20 20,22 20,21 20,23 20,22 20,23 10,24 20,24 10,24 20,25 10,25 20,25 10,26 10,26 20,26 10,27 10,27 10,27 10,27 10,28 v 28 l 10,28 10,28 v 28 l 10,29 v 28 l 10,29 v 29 28 z"
         style="fill:none;stroke:#000000;stroke-width:102.05px"
         id="path215" />
    </g>
  </g>
</svg>
